<!--

A L I G N M E N T

-->

<!-- LAYOUT -->

<!-- Align Top -->
<svg class="h-5 w-5 mx-auto" xmlns="http://www.w3.org/2000/svg" viewBox="0 0 512 512"><!--!Font Awesome Pro 6.6.0 by @fontawesome - https://fontawesome.com License - https://fontawesome.com/license (Commercial License) Copyright 2024 Fonticons, Inc.--><path d="M24 0L488 0c13.3 0 24 10.7 24 24s-10.7 24-24 24L24 48C10.7 48 0 37.3 0 24S10.7 0 24 0zM64 176c0-26.5 21.5-48 48-48l64 0c26.5 0 48 21.5 48 48l0 288c0 26.5-21.5 48-48 48l-64 0c-26.5 0-48-21.5-48-48l0-288zm224 0c0-26.5 21.5-48 48-48l64 0c26.5 0 48 21.5 48 48l0 160c0 26.5-21.5 48-48 48l-64 0c-26.5 0-48-21.5-48-48l0-160z"/></svg> 
<!-- Align Right -->
<svg class="h-5 w-5 mx-auto" xmlns="http://www.w3.org/2000/svg" viewBox="0 0 512 512"><!--!Font Awesome Pro 6.6.0 by @fontawesome - https://fontawesome.com License - https://fontawesome.com/license (Commercial License) Copyright 2024 Fonticons, Inc.--><path d="M512 24l0 464c0 13.3-10.7 24-24 24s-24-10.7-24-24l0-464c0-13.3 10.7-24 24-24s24 10.7 24 24zM336 64c26.5 0 48 21.5 48 48l0 64c0 26.5-21.5 48-48 48L48 224c-26.5 0-48-21.5-48-48l0-64C0 85.5 21.5 64 48 64l288 0zm0 224c26.5 0 48 21.5 48 48l0 64c0 26.5-21.5 48-48 48l-160 0c-26.5 0-48-21.5-48-48l0-64c0-26.5 21.5-48 48-48l160 0z"/></svg> 
<!-- Align Bottom -->
<svg class="h-5 w-5 mx-auto" xmlns="http://www.w3.org/2000/svg" viewBox="0 0 512 512"><!--!Font Awesome Pro 6.6.0 by @fontawesome - https://fontawesome.com License - https://fontawesome.com/license (Commercial License) Copyright 2024 Fonticons, Inc.--><path d="M24 512l464 0c13.3 0 24-10.7 24-24s-10.7-24-24-24L24 464c-13.3 0-24 10.7-24 24s10.7 24 24 24zM64 336c0 26.5 21.5 48 48 48l64 0c26.5 0 48-21.5 48-48l0-288c0-26.5-21.5-48-48-48L112 0C85.5 0 64 21.5 64 48l0 288zm224 0c0 26.5 21.5 48 48 48l64 0c26.5 0 48-21.5 48-48l0-160c0-26.5-21.5-48-48-48l-64 0c-26.5 0-48 21.5-48 48l0 160z"/></svg>
<!-- Align Left -->
<svg class="h-5 w-5 mx-auto" xmlns="http://www.w3.org/2000/svg" viewBox="0 0 512 512"><!--!Font Awesome Pro 6.6.0 by @fontawesome - https://fontawesome.com License - https://fontawesome.com/license (Commercial License) Copyright 2024 Fonticons, Inc.--><path d="M0 24L0 488c0 13.3 10.7 24 24 24s24-10.7 24-24L48 24C48 10.7 37.3 0 24 0S0 10.7 0 24zM176 64c-26.5 0-48 21.5-48 48l0 64c0 26.5 21.5 48 48 48l288 0c26.5 0 48-21.5 48-48l0-64c0-26.5-21.5-48-48-48L176 64zm0 224c-26.5 0-48 21.5-48 48l0 64c0 26.5 21.5 48 48 48l160 0c26.5 0 48-21.5 48-48l0-64c0-26.5-21.5-48-48-48l-160 0z"/></svg>
<!-- Align Vertical Center -->
<svg class="h-5 w-5 mx-auto" xmlns="http://www.w3.org/2000/svg" viewBox="0 0 512 512"><!--!Font Awesome Pro 6.6.0 by @fontawesome - https://fontawesome.com License - https://fontawesome.com/license (Commercial License) Copyright 2024 Fonticons, Inc.--><path d="M64 80c0-26.5 21.5-48 48-48l64 0c26.5 0 48 21.5 48 48l0 152 64 0 0-88c0-26.5 21.5-48 48-48l64 0c26.5 0 48 21.5 48 48l0 88 40 0c13.3 0 24 10.7 24 24s-10.7 24-24 24l-40 0 0 88c0 26.5-21.5 48-48 48l-64 0c-26.5 0-48-21.5-48-48l0-88-64 0 0 152c0 26.5-21.5 48-48 48l-64 0c-26.5 0-48-21.5-48-48l0-152-40 0c-13.3 0-24-10.7-24-24s10.7-24 24-24l40 0L64 80z"/></svg>
<!-- Align Horizontal Center -->
<svg class="h-5 w-5 mx-auto" xmlns="http://www.w3.org/2000/svg" viewBox="0 0 512 512"><!--!Font Awesome Pro 6.6.0 by @fontawesome - https://fontawesome.com License - https://fontawesome.com/license (Commercial License) Copyright 2024 Fonticons, Inc.--><path d="M256 0c-13.3 0-24 10.7-24 24l0 40L80 64c-26.5 0-48 21.5-48 48l0 64c0 26.5 21.5 48 48 48l152 0 0 64-88 0c-26.5 0-48 21.5-48 48l0 64c0 26.5 21.5 48 48 48l88 0 0 40c0 13.3 10.7 24 24 24s24-10.7 24-24l0-40 88 0c26.5 0 48-21.5 48-48l0-64c0-26.5-21.5-48-48-48l-88 0 0-64 152 0c26.5 0 48-21.5 48-48l0-64c0-26.5-21.5-48-48-48L280 64l0-40c0-13.3-10.7-24-24-24z"/></svg>
<!-- Align Vertical Stretch -->
<svg class="h-5 w-5 mx-auto" xmlns="http://www.w3.org/2000/svg" viewBox="0 0 512 512"><path class="cls-1" d="M24,48h464c13.3,0,24-10.7,24-24S501.3,0,488,0H24C10.7,0,0,10.7,0,24s10.7,24,24,24Z"/><path class="cls-1" d="M488,464H24c-13.3,0-24,10.7-24,24s10.7,24,24,24h464c13.3,0,24-10.7,24-24s-10.7-24-24-24Z"/><path class="cls-1" d="M112,96c-26.5,0-48,17.9-48,40v240c0,22.1,21.5,40,48,40h64c26.5,0,48-17.9,48-40v-240c0-22.1-21.5-40-48-40h-64Z"/><path class="cls-1" d="M336,96c-26.5,0-48,17.9-48,40v240c0,22.1,21.5,40,48,40h64c26.5,0,48-17.9,48-40v-240c0-22.1-21.5-40-48-40h-64Z"/></svg>
<!-- Align Horizontal Stretch -->
<svg class="h-5 w-5 mx-auto" xmlns="http://www.w3.org/2000/svg" viewBox="0 0 512 512"><path class="cls-1" d="M464,24v464c0,13.3,10.7,24,24,24s24-10.7,24-24V24c0-13.3-10.7-24-24-24s-24,10.7-24,24Z"/><path class="cls-1" d="M48,488V24C48,10.7,37.3,0,24,0S0,10.7,0,24v464c0,13.3,10.7,24,24,24s24-10.7,24-24Z"/><path class="cls-1" d="M416,112c0-26.5-17.9-48-40-48h-240c-22.1,0-40,21.5-40,48v64c0,26.5,17.9,48,40,48h240c22.1,0,40-21.5,40-48v-64Z"/><path class="cls-1" d="M416,336c0-26.5-17.9-48-40-48h-240c-22.1,0-40,21.5-40,48v64c0,26.5,17.9,48,40,48h240c22.1,0,40-21.5,40-48v-64Z"/></svg>

<!-- TEXT -->

<!-- Right -->
<svg xmlns="http://www.w3.org/2000/svg" viewBox="0 0 448 512"><!--!Font Awesome Free 6.6.0 by @fontawesome - https://fontawesome.com License - https://fontawesome.com/license/free Copyright 2024 Fonticons, Inc.--><path d="M448 64c0 17.7-14.3 32-32 32L192 96c-17.7 0-32-14.3-32-32s14.3-32 32-32l224 0c17.7 0 32 14.3 32 32zm0 256c0 17.7-14.3 32-32 32l-224 0c-17.7 0-32-14.3-32-32s14.3-32 32-32l224 0c17.7 0 32 14.3 32 32zM0 192c0-17.7 14.3-32 32-32l384 0c17.7 0 32 14.3 32 32s-14.3 32-32 32L32 224c-17.7 0-32-14.3-32-32zM448 448c0 17.7-14.3 32-32 32L32 480c-17.7 0-32-14.3-32-32s14.3-32 32-32l384 0c17.7 0 32 14.3 32 32z"/></svg>
<!-- Left -->
<svg xmlns="http://www.w3.org/2000/svg" viewBox="0 0 448 512"><!--!Font Awesome Free 6.6.0 by @fontawesome - https://fontawesome.com License - https://fontawesome.com/license/free Copyright 2024 Fonticons, Inc.--><path d="M288 64c0 17.7-14.3 32-32 32L32 96C14.3 96 0 81.7 0 64S14.3 32 32 32l224 0c17.7 0 32 14.3 32 32zm0 256c0 17.7-14.3 32-32 32L32 352c-17.7 0-32-14.3-32-32s14.3-32 32-32l224 0c17.7 0 32 14.3 32 32zM0 192c0-17.7 14.3-32 32-32l384 0c17.7 0 32 14.3 32 32s-14.3 32-32 32L32 224c-17.7 0-32-14.3-32-32zM448 448c0 17.7-14.3 32-32 32L32 480c-17.7 0-32-14.3-32-32s14.3-32 32-32l384 0c17.7 0 32 14.3 32 32z"/></svg>
<!-- Center -->
<svg xmlns="http://www.w3.org/2000/svg" viewBox="0 0 448 512"><!--!Font Awesome Free 6.6.0 by @fontawesome - https://fontawesome.com License - https://fontawesome.com/license/free Copyright 2024 Fonticons, Inc.--><path d="M352 64c0-17.7-14.3-32-32-32L128 32c-17.7 0-32 14.3-32 32s14.3 32 32 32l192 0c17.7 0 32-14.3 32-32zm96 128c0-17.7-14.3-32-32-32L32 160c-17.7 0-32 14.3-32 32s14.3 32 32 32l384 0c17.7 0 32-14.3 32-32zM0 448c0 17.7 14.3 32 32 32l384 0c17.7 0 32-14.3 32-32s-14.3-32-32-32L32 416c-17.7 0-32 14.3-32 32zM352 320c0-17.7-14.3-32-32-32l-192 0c-17.7 0-32 14.3-32 32s14.3 32 32 32l192 0c17.7 0 32-14.3 32-32z"/></svg>
<!-- Justify -->
<svg xmlns="http://www.w3.org/2000/svg" viewBox="0 0 448 512"><!--!Font Awesome Free 6.6.0 by @fontawesome - https://fontawesome.com License - https://fontawesome.com/license/free Copyright 2024 Fonticons, Inc.--><path d="M448 64c0-17.7-14.3-32-32-32L32 32C14.3 32 0 46.3 0 64S14.3 96 32 96l384 0c17.7 0 32-14.3 32-32zm0 256c0-17.7-14.3-32-32-32L32 288c-17.7 0-32 14.3-32 32s14.3 32 32 32l384 0c17.7 0 32-14.3 32-32zM0 192c0 17.7 14.3 32 32 32l384 0c17.7 0 32-14.3 32-32s-14.3-32-32-32L32 160c-17.7 0-32 14.3-32 32zM448 448c0-17.7-14.3-32-32-32L32 416c-17.7 0-32 14.3-32 32s14.3 32 32 32l384 0c17.7 0 32-14.3 32-32z"/></svg>

