<svg version="1.1" xmlns="http://www.w3.org/2000/svg" xmlns:xlink="http://www.w3.org/1999/xlink" x="0px" y="0px" viewBox="0 0 1000 1000" style="enable-background:new 0 0 1000 1000;" xml:space="preserve"><g><path class="st10" d="M536,513.9l39.6-81.1c-11.4,1.2-18.9,0.7-25.5,2.9c-24.8,8.2-49.6,16.9-74,26.2 c-21.3,8.2-23.9,13.2-17.4,34.7c6.9,22.8,3.1,42.7-8.1,64c-16.3,31-42.1,52.6-66.3,76.1c-13,12.6-25.6,25.4-36.6,40.9 c75.8-20,143.5-60.8,219.5-79.4c-13.9,25.7-30.5,47.8-56.7,59.8c-46.6,21.4-93.8,41.8-140.4,63.2c-51,23.5-101.6,47.8-152.5,71.4 c-13.6,6.3-27.8,11.5-44.6,18.5c-0.1-16.8,7.1-24.3,15.3-30.7c44.7-34.4,83-75.7,119.6-117.9c43.7-50.3,47.7-97.5-12-144.6 c-19.3-15.2-30.2-32.1-28.3-56.6c0.2-2.9,0.6-6.1-0.4-8.7c-14.7-35.5-4-68.2,10.5-100.5c3.5-7.9,7.2-16.1,12.7-22.7 c32.8-39.7,68.1-76.9,112.5-104.2c18-11.1,36.1-22.3,54.7-32.3c9.5-5.1,20.5-7.9,28.2,6.5c-11.1,24.5-34.1,40.3-55.1,52.5 c-30.7,17.8-42.1,44.1-50,74.3c-6.2,23.8-4.7,47.9,4.2,71.4c7.7,20.3,22.4,33.4,42.3,44.1c87.4-41,180.4-68.4,272.4-99.1l4.6,5.2 c-9.7,14.5-19.8,28.7-29,43.4c-9.6,15.4-18.3,31.3-30.7,52.4c66.1-13.5,116.3-53,182.4-65.2c-6,10.2-7.6,15.7-11.3,18.9 c-27,23.9-55.8,45.1-89.8,58.2c-53.3,20.5-106.5,41.4-160,61.6c-7.5,2.8-16,2.8-24.1,4L536,513.9z"/><path class="st10" d="M565.3,679.1c-2.5,6.9-2.7,12.7-5.7,15.3c-35.3,30.2-69.6,61.1-118.4,69.8c-25.4,4.5-49.5,16.5-74.1,25.1 c-10.4,3.6-20.8,7.3-35.4,12.4C361.9,747.5,489.9,681.3,565.3,679.1z"/></g></svg>