<?xml version="1.0" standalone="no"?>
<!DOCTYPE svg PUBLIC "-//W3C//DTD SVG 20010904//EN"
 "http://www.w3.org/TR/2001/REC-SVG-20010904/DTD/svg10.dtd">
<svg version="1.0" xmlns="http://www.w3.org/2000/svg"
 width="4000.000000pt" height="4000.000000pt" viewBox="0 0 4000.000000 4000.000000"
 preserveAspectRatio="xMidYMid meet">
<metadata>
Created by potrace 1.14, written by Peter Selinger 2001-2017
</metadata>
<g transform="translate(0.000000,4000.000000) scale(0.100000,-0.100000)"
fill="#000000" stroke="none">
<path d="M18767 32444 c-1 -1 -24 -5 -52 -8 -58 -8 -96 -16 -110 -25 -5 -3
-19 -7 -29 -8 -11 -2 -25 -8 -33 -14 -7 -6 -13 -9 -13 -6 0 13 -246 -106 -360
-173 -28 -17 -53 -30 -55 -30 -2 0 -42 -22 -90 -50 -48 -27 -88 -50 -90 -50
-20 0 -1379 -809 -1395 -830 -3 -4 -10 -9 -15 -11 -24 -9 -240 -143 -243 -151
-2 -4 -8 -8 -13 -8 -12 0 -113 -62 -117 -72 -2 -4 -8 -8 -13 -8 -20 0 -642
-406 -659 -430 -3 -4 -16 -13 -30 -20 -14 -7 -38 -24 -55 -36 -16 -13 -122
-91 -235 -175 -187 -139 -316 -238 -395 -304 -16 -13 -43 -35 -60 -49 -234
-190 -418 -348 -721 -621 -12 -10 -221 -207 -323 -303 -150 -141 -593 -590
-742 -752 -18 -19 -64 -69 -103 -110 -39 -41 -109 -118 -156 -170 -47 -52 -90
-99 -96 -105 -11 -10 -236 -264 -289 -326 -16 -19 -58 -66 -91 -105 -50 -56
-312 -363 -376 -439 -253 -302 -270 -325 -360 -468 -67 -106 -189 -336 -252
-477 -65 -143 -98 -217 -116 -255 -26 -55 -202 -468 -205 -480 -3 -12 -10 -30
-46 -118 -16 -37 -29 -71 -30 -75 -1 -7 -6 -20 -44 -122 -27 -74 -131 -391
-136 -418 -1 -4 -6 -18 -11 -32 -9 -24 -13 -36 -23 -81 -2 -11 -7 -29 -10 -39
-3 -10 -8 -27 -10 -37 -2 -10 -12 -47 -20 -83 -9 -36 -18 -72 -20 -80 -2 -8
-10 -44 -19 -80 -16 -67 -21 -96 -31 -165 -4 -22 -8 -47 -10 -55 -6 -23 -14
-70 -19 -120 -3 -25 -7 -65 -11 -90 -3 -25 -8 -61 -10 -80 -23 -177 -24 -619
-1 -785 2 -16 7 -59 11 -95 4 -36 8 -67 10 -70 2 -3 6 -27 9 -55 4 -27 9 -57
11 -65 2 -8 7 -28 10 -45 5 -31 11 -59 20 -95 3 -11 7 -28 9 -38 2 -9 9 -37
16 -62 7 -25 14 -52 15 -61 12 -59 111 -352 145 -424 32 -70 38 -147 25 -320
-17 -222 -9 -480 19 -642 16 -90 19 -105 31 -153 3 -11 7 -29 10 -40 3 -11 7
-29 9 -40 3 -10 21 -68 41 -127 62 -182 171 -389 315 -598 91 -132 269 -324
466 -506 41 -38 198 -169 274 -229 40 -32 148 -121 210 -172 217 -182 480
-443 714 -709 70 -78 316 -409 316 -424 0 -2 18 -30 40 -61 22 -32 40 -62 40
-67 0 -6 6 -18 14 -26 49 -57 253 -489 272 -576 1 -5 12 -39 24 -75 19 -61 57
-200 66 -245 2 -11 7 -33 11 -50 3 -16 7 -37 8 -45 6 -42 18 -117 21 -133 24
-127 24 -556 0 -683 -2 -11 -7 -41 -10 -69 -4 -27 -9 -57 -11 -65 -2 -8 -6
-31 -9 -50 -7 -44 -14 -77 -20 -98 -3 -9 -7 -28 -10 -42 -3 -14 -8 -36 -11
-50 -3 -14 -8 -35 -10 -46 -3 -12 -12 -38 -20 -58 -8 -20 -13 -36 -10 -36 2 0
-4 -21 -14 -47 -10 -27 -19 -51 -20 -55 -3 -17 -45 -135 -62 -173 -4 -11 -20
-49 -35 -85 -171 -420 -493 -937 -873 -1400 -78 -95 -282 -333 -416 -485 -29
-33 -90 -103 -135 -155 -45 -52 -97 -111 -114 -130 -18 -19 -126 -141 -241
-270 -115 -129 -230 -257 -255 -285 -26 -27 -75 -81 -110 -120 -203 -225 -437
-474 -798 -853 -137 -145 -803 -810 -943 -943 -72 -68 -148 -140 -168 -159
-105 -99 -291 -272 -325 -301 -22 -19 -51 -45 -65 -59 -234 -225 -860 -752
-1291 -1089 -240 -188 -312 -252 -404 -361 -119 -141 -200 -289 -241 -440 -28
-101 -35 -131 -40 -165 -3 -23 -8 -52 -11 -65 -10 -48 -17 -283 -8 -278 9 4
41 18 87 38 12 5 231 93 487 196 256 102 476 190 490 196 14 6 30 12 35 13 6
2 33 13 60 25 28 12 59 26 70 30 11 4 36 15 57 24 20 9 39 16 42 16 3 0 29 11
58 24 72 33 147 65 153 65 3 0 18 7 33 15 15 8 50 25 77 37 67 29 227 103 385
177 47 21 117 54 155 72 39 18 111 52 160 75 50 23 115 54 145 68 30 13 100
46 155 72 55 26 127 60 160 75 33 16 110 52 170 81 61 29 112 53 115 53 3 1
44 20 93 44 48 23 89 42 92 42 2 0 55 25 117 55 62 30 119 55 125 55 7 0 13 5
13 10 0 6 4 10 10 10 5 0 45 16 87 36 73 34 122 57 343 162 181 85 301 141
308 143 4 2 41 19 82 39 41 21 104 51 140 68 36 16 110 51 165 77 55 26 136
64 180 85 44 21 123 58 175 82 127 61 239 113 330 155 41 20 127 60 190 90 63
31 140 67 170 80 55 26 127 59 315 148 55 26 127 60 160 75 33 15 108 51 167
78 59 28 128 61 155 73 26 12 86 40 133 61 47 22 112 53 145 68 33 15 103 48
155 72 52 25 97 45 100 46 3 0 32 14 65 30 33 16 80 39 105 50 25 11 86 39
135 62 50 23 117 55 150 70 33 15 94 43 135 62 41 19 78 36 83 36 4 1 28 13
55 26 26 13 67 33 92 44 25 11 86 39 135 62 50 23 90 41 90 40 0 -1 23 9 50
23 28 14 73 35 100 47 28 12 82 37 120 55 39 18 93 42 120 55 28 12 68 30 91
41 22 10 46 19 52 19 7 0 12 5 12 10 0 6 6 10 14 10 8 0 66 25 131 55 64 30
118 55 120 55 2 0 36 15 77 34 40 18 94 43 121 55 105 47 196 88 302 136 30
14 56 24 58 22 2 -1 14 5 27 14 14 8 43 23 65 31 22 9 69 30 105 46 36 16 90
41 120 55 30 13 75 34 100 45 25 11 106 47 180 80 74 33 165 74 203 91 37 17
69 31 71 31 2 0 47 20 100 45 53 25 99 45 101 45 4 0 97 42 213 96 40 19 75
34 77 34 3 0 99 42 170 75 17 8 93 42 170 76 77 33 144 65 149 70 6 5 15 9 22
9 6 0 49 17 95 39 46 21 86 38 89 38 3 0 25 11 50 24 25 13 47 24 50 24 13 4
110 47 248 111 41 19 75 34 77 34 2 0 32 13 67 29 35 16 86 39 113 51 28 13
79 36 115 52 61 28 108 49 120 53 3 1 34 15 70 32 36 16 67 30 70 29 3 0 19 7
35 17 29 16 56 28 260 120 112 50 189 85 285 129 36 17 79 36 95 43 17 8 68
31 115 53 47 21 87 39 90 39 3 -1 19 6 35 16 17 9 91 46 165 81 74 36 153 76
175 88 169 96 281 169 440 288 525 394 984 944 1430 1715 69 120 145 260 145
268 0 3 -18 0 -40 -8 -22 -8 -40 -12 -40 -10 0 2 -18 -2 -40 -10 -22 -8 -40
-12 -40 -10 0 3 -11 0 -25 -5 -14 -5 -36 -12 -48 -15 -43 -9 -152 -37 -167
-42 -18 -7 -29 -10 -55 -17 -35 -8 -128 -34 -200 -56 -38 -12 -77 -23 -85 -25
-60 -14 -76 -19 -87 -28 -7 -5 -13 -7 -13 -3 0 3 -16 0 -35 -8 -19 -8 -35 -12
-35 -9 0 3 -7 0 -15 -7 -8 -7 -15 -10 -15 -7 0 3 -26 -3 -57 -14 -32 -11 -65
-22 -73 -24 -32 -8 -314 -98 -350 -112 -8 -4 -17 -7 -20 -8 -18 -4 -335 -112
-360 -122 -8 -3 -19 -7 -25 -8 -15 -4 -445 -161 -480 -176 -16 -6 -34 -13 -40
-15 -11 -3 -267 -101 -305 -117 -14 -6 -27 -11 -30 -11 -21 -4 -139 -52 -157
-64 -13 -8 -23 -11 -23 -8 0 4 -10 1 -22 -6 -13 -6 -27 -13 -33 -14 -11 -2
-102 -38 -150 -59 -16 -7 -133 -54 -260 -105 -126 -51 -234 -95 -240 -98 -5
-4 -15 -7 -21 -8 -10 -2 -114 -45 -191 -80 -17 -8 -34 -14 -37 -14 -3 0 -28
-9 -54 -21 -94 -41 -126 -55 -247 -104 -91 -38 -134 -56 -192 -81 -17 -8 -33
-14 -36 -14 -2 0 -31 -12 -63 -27 -33 -14 -63 -28 -69 -29 -11 -3 -135 -54
-191 -79 -86 -38 -101 -44 -129 -55 -32 -12 -251 -104 -300 -125 -16 -7 -55
-23 -85 -35 -30 -12 -68 -27 -85 -35 -16 -7 -66 -27 -110 -45 -44 -18 -84 -35
-90 -38 -5 -4 -14 -7 -20 -8 -5 -1 -64 -24 -130 -52 -101 -42 -391 -160 -460
-187 -11 -4 -24 -9 -30 -10 -10 -2 -148 -58 -190 -76 -11 -5 -81 -32 -155 -60
-74 -28 -146 -56 -160 -62 -14 -5 -29 -11 -35 -12 -9 -3 -78 -29 -130 -50 -11
-4 -27 -9 -35 -11 -8 -2 -23 -7 -35 -13 -11 -5 -47 -19 -80 -31 -33 -11 -67
-23 -75 -27 -8 -3 -19 -7 -25 -9 -5 -1 -55 -19 -110 -39 -55 -20 -120 -43
-145 -51 -25 -8 -52 -18 -60 -21 -8 -3 -19 -7 -25 -9 -5 -2 -118 -40 -250 -84
-132 -45 -244 -83 -250 -84 -5 -2 -23 -6 -40 -11 -16 -4 -34 -10 -40 -14 -5
-3 -15 -6 -22 -7 -11 -2 -195 -58 -233 -72 -8 -3 -21 -6 -29 -8 -8 -1 -37 -10
-65 -19 -28 -10 -62 -19 -75 -22 -13 -2 -32 -8 -43 -14 -10 -5 -18 -7 -18 -5
0 3 -12 1 -27 -5 -25 -9 -224 -66 -263 -74 -8 -2 -23 -6 -32 -10 -10 -4 -18
-5 -18 -3 0 4 66 96 88 123 4 6 21 28 37 50 103 139 313 394 470 570 155 175
258 282 540 565 264 265 411 408 760 739 911 863 1318 1297 1684 1793 152 205
201 276 201 288 0 6 4 10 9 10 5 0 16 12 24 28 8 15 41 70 74 122 118 185 308
537 366 675 9 22 28 67 42 100 15 33 28 65 29 70 3 10 9 24 39 98 9 20 16 38
16 40 0 1 2 9 5 17 18 58 30 96 31 100 0 3 3 10 7 16 4 6 9 21 12 35 3 13 21
83 40 154 19 72 37 146 40 165 3 19 8 46 11 60 2 13 8 42 11 65 24 151 29 221
29 450 0 236 -7 340 -30 465 -4 19 -8 46 -10 60 -3 14 -7 36 -10 50 -3 14 -8
39 -10 55 -3 17 -8 38 -11 47 -3 9 -6 25 -8 35 -5 24 -42 159 -56 203 -18 58
-82 303 -86 330 -2 14 -6 36 -8 50 -17 78 -20 117 -21 230 0 191 36 283 160
405 96 97 242 183 460 275 55 23 114 48 130 55 17 7 71 27 120 45 50 18 109
41 132 51 23 11 47 19 53 19 6 0 30 10 53 21 23 12 42 21 42 19 0 -6 80 22 90
31 5 5 15 9 23 9 8 0 28 6 45 14 27 12 322 121 547 201 36 13 110 40 165 60
55 20 118 43 140 50 22 7 72 25 110 40 39 14 77 27 85 30 8 2 87 29 175 60 88
31 185 65 215 75 30 10 141 48 245 85 105 36 197 68 205 70 8 2 150 49 315
105 381 128 391 130 625 155 25 3 83 7 130 10 47 3 119 8 160 11 41 2 104 7
140 9 82 5 187 15 203 18 7 1 11 -3 10 -9 -1 -5 -50 -109 -108 -229 -59 -120
-111 -228 -116 -239 -5 -12 -13 -28 -19 -36 -5 -8 -59 -118 -121 -245 -197
-409 -251 -520 -260 -535 -5 -8 -13 -24 -18 -35 -5 -11 -68 -141 -141 -290
-73 -148 -174 -355 -225 -460 -51 -104 -143 -293 -205 -420 -313 -639 -360
-736 -360 -741 0 -5 20 -32 77 -104 6 -8 44 -56 83 -107 58 -74 76 -91 93 -87
12 2 42 6 67 9 25 3 56 7 70 10 14 2 50 6 80 9 30 3 78 8 105 11 28 3 70 7 94
10 70 7 183 23 226 31 11 2 31 6 45 9 27 5 57 12 93 21 12 3 33 7 47 10 13 3
65 21 115 40 49 19 97 36 105 38 13 4 170 63 225 86 11 5 54 21 95 36 41 15
94 35 117 45 23 11 47 19 53 19 5 0 18 4 28 9 33 16 97 43 112 46 13 3 57 19
170 63 14 5 27 10 30 10 3 1 23 8 45 18 77 32 90 37 100 40 9 2 99 37 340 130
50 19 122 47 160 61 39 14 76 30 83 35 6 6 12 8 12 5 0 -3 17 1 38 10 75 31
87 36 97 38 10 3 106 39 140 54 11 5 38 16 60 24 66 26 293 113 395 152 52 19
104 40 115 45 11 5 72 28 135 51 63 24 120 46 126 51 7 5 20 10 30 12 11 2 60
20 109 39 50 20 214 83 365 142 151 58 289 112 305 119 17 8 41 17 55 21 14 4
39 13 55 20 72 30 168 68 175 69 18 4 137 51 146 58 7 5 20 10 30 13 11 2 66
22 124 45 155 61 460 179 870 336 63 25 124 49 135 54 11 5 70 28 130 50 61
22 119 44 130 49 42 19 134 53 140 52 3 -1 18 5 33 13 15 9 124 52 242 97 118
44 229 87 245 94 17 7 68 27 115 45 74 27 169 64 235 90 21 9 57 22 65 25 5 2
7 3 150 63 262 110 507 228 757 364 93 50 186 102 208 114 22 13 62 36 89 51
27 15 56 33 65 38 9 6 44 27 78 47 176 104 705 453 723 476 3 4 34 27 70 51
52 36 393 290 443 331 7 5 86 69 177 142 145 115 208 168 310 255 14 11 75 63
135 114 216 183 291 251 327 297 21 26 44 54 50 62 7 8 18 24 24 35 6 11 24
45 41 75 16 30 63 118 103 195 40 77 97 182 127 233 29 52 53 95 53 98 0 4
-62 -4 -90 -11 -8 -2 -28 -7 -45 -10 -34 -6 -52 -9 -115 -24 -25 -5 -57 -12
-72 -15 -16 -3 -40 -9 -55 -12 -28 -5 -90 -20 -128 -30 -11 -3 -30 -7 -42 -10
-12 -2 -34 -9 -48 -14 -14 -5 -25 -7 -25 -5 0 2 -11 0 -25 -5 -14 -5 -36 -12
-48 -14 -38 -8 -206 -54 -215 -60 -5 -3 -23 -8 -40 -11 -18 -3 -51 -12 -75
-19 -23 -8 -89 -28 -147 -46 -58 -17 -112 -34 -120 -36 -8 -3 -17 -6 -20 -6
-3 -1 -34 -12 -70 -25 -36 -13 -69 -26 -75 -27 -5 -2 -23 -6 -40 -11 -16 -4
-34 -10 -40 -14 -5 -3 -14 -6 -20 -7 -9 -2 -137 -48 -250 -90 -22 -8 -69 -26
-105 -39 -137 -50 -495 -191 -545 -215 -11 -5 -48 -21 -82 -35 -35 -14 -87
-36 -117 -50 -30 -14 -57 -25 -60 -25 -3 0 -29 -11 -58 -24 -30 -14 -76 -33
-103 -44 -46 -18 -104 -44 -242 -108 -29 -13 -64 -26 -78 -30 -14 -3 -25 -10
-25 -14 0 -4 -11 -11 -24 -14 -14 -3 -54 -20 -90 -36 -36 -17 -96 -43 -132
-60 -36 -16 -67 -30 -69 -30 -2 0 -43 -18 -92 -41 -48 -22 -101 -46 -118 -54
-16 -7 -106 -47 -200 -90 -93 -42 -183 -82 -200 -90 -16 -7 -56 -25 -88 -39
-32 -14 -59 -26 -61 -26 -2 0 -43 -18 -90 -40 -47 -22 -88 -40 -90 -40 -3 0
-34 -13 -69 -30 -36 -16 -68 -30 -71 -30 -3 0 -29 -11 -58 -24 -123 -57 -757
-316 -773 -316 -4 0 -21 -6 -38 -14 -61 -28 -551 -203 -590 -211 -10 -2 -50
-15 -90 -29 -62 -21 -232 -75 -262 -82 -5 -1 -50 -15 -100 -29 -49 -15 -97
-28 -105 -30 -8 -2 -64 -17 -125 -33 -95 -26 -128 -35 -180 -48 -5 -1 -21 -4
-35 -7 -14 -3 -43 -10 -65 -15 -22 -6 -51 -13 -65 -16 -14 -2 -58 -12 -98 -20
-40 -9 -77 -16 -82 -16 -5 0 23 55 62 123 39 67 82 142 96 167 14 25 33 57 43
72 11 14 19 28 19 31 0 3 19 38 43 79 24 40 55 93 69 118 14 25 67 118 119
208 52 89 103 179 115 200 49 88 82 145 157 272 44 74 87 149 96 165 13 25
240 404 271 455 80 128 130 213 130 220 0 4 4 10 8 12 6 2 118 174 167 255 6
9 14 22 18 27 4 6 60 90 124 186 110 167 291 434 496 735 150 219 332 488 335
495 2 6 -59 79 -148 176 l-38 42 -202 -68 c-205 -69 -237 -80 -255 -85 -18 -5
-509 -167 -525 -173 -8 -3 -17 -6 -20 -7 -3 0 -119 -38 -257 -83 -139 -46
-255 -83 -258 -83 -2 0 -28 -9 -57 -20 -29 -11 -60 -22 -68 -24 -22 -5 -351
-112 -450 -147 -47 -16 -92 -31 -100 -33 -8 -1 -71 -22 -140 -45 -69 -23 -132
-43 -140 -45 -8 -2 -105 -33 -215 -70 -110 -37 -207 -68 -215 -70 -8 -2 -16
-4 -17 -5 -2 -2 -6 -3 -10 -4 -5 -1 -12 -4 -18 -7 -5 -4 -26 -10 -45 -14 -19
-4 -41 -12 -49 -19 -8 -6 -17 -10 -20 -9 -6 3 -57 -11 -91 -24 -8 -3 -19 -7
-25 -9 -5 -1 -143 -46 -305 -99 -347 -114 -319 -104 -325 -105 -4 0 -43 -14
-100 -36 -11 -4 -22 -8 -25 -9 -12 -3 -86 -27 -100 -32 -8 -4 -17 -7 -20 -8
-69 -19 -188 -60 -199 -69 -8 -6 -16 -10 -18 -8 -1 1 -4 2 -5 1 -2 0 -10 -2
-18 -4 -16 -4 -92 -29 -495 -165 -148 -50 -277 -94 -285 -97 -8 -3 -19 -7 -25
-9 -5 -1 -68 -23 -140 -49 -71 -25 -137 -47 -145 -49 -26 -7 -361 -123 -440
-153 -8 -3 -19 -7 -25 -9 -30 -8 -223 -76 -240 -84 -11 -5 -47 -18 -80 -29
-33 -11 -130 -45 -215 -76 -85 -31 -159 -58 -165 -59 -5 -2 -23 -8 -40 -15
-40 -16 -62 -23 -185 -67 -58 -20 -116 -41 -130 -47 -14 -5 -29 -11 -35 -13
-5 -1 -23 -8 -40 -15 -16 -6 -34 -13 -40 -15 -23 -7 -101 -35 -120 -43 -11 -5
-78 -30 -150 -56 -71 -26 -143 -53 -160 -60 -16 -7 -61 -24 -100 -38 -38 -15
-83 -32 -100 -38 -16 -7 -34 -13 -40 -14 -15 -4 -165 -64 -202 -80 -17 -8 -37
-15 -45 -15 -8 0 -19 -5 -26 -12 -7 -7 -12 -9 -12 -5 0 4 -22 -4 -50 -18 -27
-14 -50 -23 -50 -20 0 3 -10 0 -22 -7 -13 -6 -27 -13 -33 -14 -11 -2 -158 -59
-190 -74 -11 -5 -74 -30 -140 -55 -66 -26 -134 -53 -150 -60 -32 -14 -86 -37
-95 -40 -3 -1 -18 -7 -33 -13 -16 -7 -31 -12 -34 -12 -3 0 -19 -6 -36 -14 -18
-8 -84 -36 -147 -61 -63 -26 -128 -53 -145 -60 -16 -7 -59 -25 -95 -40 -36
-15 -79 -33 -97 -41 -17 -8 -34 -14 -37 -14 -5 0 -60 -23 -141 -60 -11 -5 -69
-30 -130 -55 -60 -26 -116 -51 -122 -57 -7 -6 -13 -8 -13 -5 0 3 -28 -7 -62
-22 -35 -16 -137 -61 -228 -101 -91 -40 -187 -83 -215 -95 -27 -13 -120 -54
-205 -93 -85 -39 -200 -91 -255 -117 -55 -25 -122 -56 -150 -69 l-49 -23 -156
90 c-136 79 -406 251 -420 267 -3 4 -32 26 -65 50 -167 121 -435 370 -540 500
-20 25 -44 54 -53 65 -143 162 -335 492 -435 745 -69 174 -154 436 -193 593
-2 9 -6 26 -9 37 -3 11 -7 28 -9 38 -7 29 -35 156 -40 185 -2 15 -7 35 -10 45
-2 9 -7 37 -10 62 -3 25 -8 56 -11 70 -3 14 -7 39 -9 55 -35 246 -41 344 -41
650 0 307 7 423 40 635 2 14 7 45 10 70 9 66 13 88 35 195 12 57 18 87 24 113
2 9 11 49 20 87 9 39 26 102 37 140 11 39 27 95 35 125 26 91 56 192 71 240 8
25 17 54 19 65 2 11 8 31 13 45 5 14 28 79 51 145 23 66 43 125 45 130 2 6 29
71 60 145 30 74 56 139 58 144 6 25 191 392 231 459 25 43 46 80 46 83 0 3 6
11 13 19 6 7 26 36 42 64 17 28 33 51 38 51 4 0 7 5 7 10 0 14 115 173 210
289 89 110 250 283 321 346 19 17 68 60 109 96 102 89 234 191 360 276 126 85
304 194 320 198 3 0 23 12 45 26 22 14 87 54 145 88 213 128 728 481 760 520
3 4 25 22 50 41 25 19 90 72 145 120 319 273 567 549 766 855 115 176 231 398
222 423 -18 48 -106 166 -177 237 -124 124 -237 175 -394 179 -50 2 -93 2 -95
0z"/>
<path d="M22467 12834 c-1 -1 -47 -5 -102 -9 -165 -12 -178 -13 -240 -20 -33
-4 -71 -8 -85 -10 -14 -2 -45 -6 -70 -9 -25 -3 -65 -8 -90 -11 -25 -3 -56 -8
-70 -10 -52 -9 -86 -14 -125 -20 -40 -5 -63 -9 -115 -20 -14 -2 -38 -7 -55
-10 -16 -3 -41 -7 -55 -10 -14 -3 -41 -8 -60 -11 -19 -3 -51 -9 -70 -14 -19
-5 -48 -12 -65 -14 -16 -3 -61 -13 -100 -21 -38 -9 -81 -18 -95 -21 -14 -3
-52 -12 -85 -21 -33 -8 -68 -17 -77 -19 -10 -2 -26 -6 -35 -8 -22 -5 -212 -55
-233 -61 -8 -2 -33 -9 -55 -15 -44 -12 -42 -11 -105 -30 -55 -16 -60 -18 -85
-23 -24 -6 -223 -66 -245 -74 -8 -3 -20 -7 -27 -9 -25 -5 -439 -143 -473 -157
-19 -9 -39 -16 -45 -17 -14 -4 -32 -9 -52 -17 -10 -3 -22 -7 -28 -9 -5 -1 -21
-6 -35 -12 -14 -5 -28 -10 -32 -11 -5 -1 -33 -12 -63 -26 -30 -13 -55 -22 -55
-20 0 4 -43 -12 -95 -35 -28 -12 -58 -23 -71 -25 -6 -2 -27 -10 -45 -18 -19
-9 -52 -22 -74 -30 -55 -19 -399 -160 -468 -191 -30 -14 -58 -26 -61 -26 -2 0
-33 -13 -68 -29 -35 -16 -101 -45 -148 -66 -47 -21 -121 -54 -165 -75 -44 -20
-114 -52 -155 -71 -101 -46 -743 -367 -855 -427 -86 -46 -252 -137 -360 -197
-464 -258 -1076 -645 -1488 -942 -327 -236 -751 -576 -952 -763 -22 -20 -69
-64 -103 -96 -249 -231 -516 -521 -688 -749 -121 -159 -283 -409 -273 -420 3
-2 63 17 134 41 149 52 148 51 158 53 4 0 21 8 37 16 17 9 30 13 30 10 0 -3
13 1 30 10 16 8 33 16 37 16 12 2 169 55 223 76 8 3 20 7 25 9 15 4 388 134
405 141 8 3 18 7 23 8 4 2 8 3 10 5 1 1 9 3 17 5 18 4 216 72 245 85 11 4 49
18 85 30 36 12 72 25 80 28 8 3 20 6 25 8 24 6 282 105 297 114 10 5 23 10 30
10 7 0 24 6 38 13 14 7 54 23 90 36 36 13 79 29 95 36 17 7 62 25 100 40 39
15 84 33 100 40 17 8 41 17 55 21 14 4 45 16 70 27 25 11 50 21 55 23 9 2 219
84 280 109 11 4 25 9 30 11 6 1 24 7 40 14 17 6 30 10 30 9 0 -1 11 4 25 11
14 8 27 15 30 15 12 2 86 28 95 34 6 3 13 6 18 7 4 1 9 3 12 4 3 1 8 3 13 5 4
1 14 4 22 7 42 16 56 21 65 24 11 2 151 52 175 61 20 8 20 8 55 18 17 4 35 10
40 14 6 3 19 7 29 8 11 2 25 8 33 14 7 6 13 9 13 6 0 -4 19 1 43 9 23 9 49 17
57 19 8 2 45 13 81 24 65 20 276 78 347 95 103 25 146 34 187 41 17 3 37 8 45
10 8 2 29 7 45 10 17 2 39 6 50 9 11 2 36 6 55 10 57 10 73 13 176 36 99 22
116 26 154 35 11 3 29 7 40 10 11 3 28 7 38 9 21 5 108 29 182 51 30 9 62 18
71 20 67 15 479 163 494 176 5 5 15 9 23 9 7 0 34 9 60 21 26 11 56 24 67 29
11 5 52 22 90 39 128 57 528 260 640 326 61 35 132 77 159 92 27 15 56 33 65
38 80 49 98 61 109 72 7 7 17 13 22 13 22 0 467 307 735 509 430 322 1585
1288 1630 1363 19 31 51 106 60 138 45 163 60 219 81 290 14 47 26 90 27 95 2
6 6 15 10 21 5 9 -14 11 -69 10 -42 0 -76 -2 -77 -2z"/>
</g>
</svg>
