<?xml version="1.0" encoding="UTF-8"?><svg id="Layer_1" xmlns="http://www.w3.org/2000/svg" viewBox="0 0 1536 1024"><defs><style>.cls-1{fill:none;opacity:.15;stroke:#fff;stroke-miterlimit:10;stroke-width:29.39px;}.cls-2{fill:#fff;stroke-width:0px;}</style></defs><path class="cls-2" d="M1506.61,29.39v965.21H29.39V29.39h1477.21M1536,0H0V1024h1536V0h0Z"/><line class="cls-1" x2="1536" y2="1024"/><line class="cls-1" x1="1536" y2="1024"/><path class="cls-2" d="M320,356.3h18.03v98.34h29.67v16.39h-47.69v-114.73Z"/><path class="cls-2" d="M390.97,356.3h24.42l18.68,114.73h-18.03l-3.28-22.78v.33h-20.49l-3.28,22.45h-16.72l18.68-114.73ZM410.63,433l-8.03-56.71h-.33l-7.87,56.71h16.23Z"/><path class="cls-2" d="M442.76,356.3h22.62l17.54,68.67h.33v-68.67h16.06v114.73h-18.52l-21.63-83.75h-.33v83.75h-16.06v-114.73Z"/><path class="cls-2" d="M512.74,356.3h27.53c8.96,0,15.68,2.4,20.16,7.21,4.48,4.81,6.72,11.86,6.72,21.14v58.02c0,9.29-2.24,16.34-6.72,21.14-4.48,4.81-11.2,7.21-20.16,7.21h-27.53v-114.73ZM539.94,454.64c2.95,0,5.22-.87,6.8-2.62,1.58-1.75,2.38-4.59,2.38-8.52v-59.66c0-3.93-.79-6.77-2.38-8.52-1.59-1.75-3.85-2.62-6.8-2.62h-9.18v81.95h9.18Z"/><path class="cls-2" d="M582.88,465.21c-4.48-4.97-6.72-12.1-6.72-21.39v-6.56h17.05v7.87c0,7.43,3.11,11.14,9.34,11.14,3.06,0,5.38-.9,6.97-2.7,1.58-1.8,2.38-4.72,2.38-8.77,0-4.81-1.09-9.04-3.28-12.7-2.19-3.66-6.23-8.06-12.13-13.19-7.43-6.56-12.62-12.48-15.57-17.78-2.95-5.3-4.43-11.28-4.43-17.95,0-9.07,2.29-16.09,6.88-21.06,4.59-4.97,11.25-7.46,19.99-7.46s15.16,2.49,19.59,7.46c4.43,4.97,6.64,12.1,6.64,21.39v4.75h-17.05v-5.9c0-3.93-.77-6.8-2.29-8.6-1.53-1.8-3.77-2.7-6.72-2.7-6.01,0-9.01,3.66-9.01,10.98,0,4.15,1.12,8.03,3.36,11.64,2.24,3.61,6.31,7.98,12.21,13.11,7.54,6.56,12.73,12.51,15.57,17.87,2.84,5.35,4.26,11.64,4.26,18.85,0,9.4-2.32,16.61-6.97,21.63-4.65,5.03-11.39,7.54-20.24,7.54s-15.35-2.48-19.83-7.46Z"/><path class="cls-2" d="M645.9,465.29c-4.54-4.92-6.8-11.86-6.8-20.82v-61.62c0-8.96,2.27-15.9,6.8-20.82,4.53-4.92,11.12-7.38,19.75-7.38s15.21,2.46,19.75,7.38c4.53,4.92,6.8,11.86,6.8,20.82v12.13h-17.05v-13.28c0-7.1-3.01-10.65-9.01-10.65s-9.01,3.55-9.01,10.65v64.08c0,6.99,3,10.49,9.01,10.49s9.01-3.5,9.01-10.49v-17.54h17.05v16.23c0,8.96-2.27,15.9-6.8,20.82-4.54,4.92-11.12,7.38-19.75,7.38s-15.22-2.46-19.75-7.38Z"/><path class="cls-2" d="M716.95,356.3h24.42l18.68,114.73h-18.03l-3.28-22.78v.33h-20.49l-3.28,22.45h-16.72l18.68-114.73ZM736.62,433l-8.03-56.71h-.33l-7.87,56.71h16.23Z"/><path class="cls-2" d="M768.74,356.3h26.55c8.96,0,15.68,2.4,20.16,7.21,4.48,4.81,6.72,11.86,6.72,21.14v11.31c0,9.29-2.24,16.34-6.72,21.14-4.48,4.81-11.2,7.21-20.16,7.21h-8.52v46.71h-18.03v-114.73ZM795.29,407.93c2.95,0,5.16-.82,6.64-2.46,1.48-1.64,2.21-4.43,2.21-8.36v-13.6c0-3.93-.74-6.72-2.21-8.36-1.47-1.64-3.69-2.46-6.64-2.46h-8.52v35.24h8.52Z"/><path class="cls-2" d="M832,356.3h49.17v16.39h-31.14v30.32h24.75v16.39h-24.75v35.24h31.14v16.39h-49.17v-114.73Z"/><path class="cls-2" d="M917.71,356.3h18.03v114.73h-18.03v-114.73Z"/><path class="cls-2" d="M949.18,356.3h25.73l11.47,82.11h.33l11.47-82.11h25.73v114.73h-17.05v-86.87h-.33l-13.11,86.87h-15.08l-13.11-86.87h-.33v86.87h-15.74v-114.73Z"/><path class="cls-2" d="M1051.29,356.3h24.42l18.68,114.73h-18.03l-3.28-22.78v.33h-20.49l-3.28,22.45h-16.72l18.68-114.73ZM1070.95,433l-8.03-56.71h-.33l-7.87,56.71h16.22Z"/><path class="cls-2" d="M1108.32,465.21c-4.59-4.97-6.88-12.1-6.88-21.39v-60.31c0-9.28,2.3-16.42,6.88-21.39,4.59-4.97,11.25-7.46,20-7.46s15.41,2.49,20,7.46c4.59,4.97,6.88,12.1,6.88,21.39v9.83h-17.04v-10.98c0-7.54-3.11-11.31-9.34-11.31s-9.34,3.77-9.34,11.31v62.77c0,7.43,3.11,11.14,9.34,11.14s9.34-3.71,9.34-11.14v-22.45h-9.01v-16.39h26.06v37.53c0,9.29-2.29,16.42-6.88,21.39-4.59,4.97-11.26,7.46-20,7.46s-15.41-2.48-20-7.46Z"/><path class="cls-2" d="M1166.83,356.3h49.17v16.39h-31.14v30.32h24.75v16.39h-24.75v35.24h31.14v16.39h-49.17v-114.73Z"/><path class="cls-2" d="M427.76,552.97h26.55c8.96,0,15.68,2.4,20.16,7.21,4.48,4.81,6.72,11.86,6.72,21.14v11.31c0,9.29-2.24,16.34-6.72,21.14-4.48,4.81-11.2,7.21-20.16,7.21h-8.52v46.71h-18.03v-114.73ZM454.31,604.6c2.95,0,5.16-.82,6.64-2.46,1.47-1.64,2.21-4.43,2.21-8.36v-13.6c0-3.93-.74-6.72-2.21-8.36-1.47-1.64-3.69-2.46-6.64-2.46h-8.52v35.24h8.52Z"/><path class="cls-2" d="M491.02,552.97h18.03v98.34h29.67v16.39h-47.69v-114.73Z"/><path class="cls-2" d="M561.98,552.97h24.42l18.68,114.73h-18.03l-3.28-22.78v.33h-20.49l-3.28,22.45h-16.72l18.68-114.73ZM581.65,629.68l-8.03-56.71h-.33l-7.87,56.71h16.23Z"/><path class="cls-2" d="M619.1,661.97c-4.54-4.92-6.8-11.86-6.8-20.82v-61.62c0-8.96,2.27-15.9,6.8-20.82,4.53-4.92,11.12-7.38,19.75-7.38s15.21,2.46,19.75,7.38c4.53,4.92,6.8,11.86,6.8,20.82v12.13h-17.05v-13.28c0-7.1-3.01-10.65-9.01-10.65s-9.01,3.55-9.01,10.65v64.08c0,6.99,3,10.49,9.01,10.49s9.01-3.5,9.01-10.49v-17.54h17.05v16.23c0,8.96-2.27,15.9-6.8,20.82-4.54,4.92-11.12,7.38-19.75,7.38s-15.22-2.46-19.75-7.38Z"/><path class="cls-2" d="M676.22,552.97h49.17v16.39h-31.14v30.32h24.75v16.39h-24.75v35.24h31.14v16.39h-49.17v-114.73Z"/><path class="cls-2" d="M735.71,552.97h18.03v46.71h19.34v-46.71h18.03v114.73h-18.03v-51.63h-19.34v51.63h-18.03v-114.73Z"/><path class="cls-2" d="M810.28,661.8c-4.7-5.02-7.05-12.13-7.05-21.31v-60.31c0-9.18,2.35-16.28,7.05-21.31,4.7-5.02,11.47-7.54,20.32-7.54s15.62,2.51,20.32,7.54c4.7,5.03,7.05,12.13,7.05,21.31v60.31c0,9.18-2.35,16.28-7.05,21.31-4.7,5.03-11.47,7.54-20.32,7.54s-15.63-2.51-20.32-7.54ZM839.95,641.64v-62.61c0-7.54-3.11-11.31-9.34-11.31s-9.34,3.77-9.34,11.31v62.61c0,7.54,3.11,11.31,9.34,11.31s9.34-3.77,9.34-11.31Z"/><path class="cls-2" d="M870.1,552.97h18.03v98.34h29.67v16.39h-47.69v-114.73Z"/><path class="cls-2" d="M926.48,552.97h27.54c8.96,0,15.68,2.4,20.16,7.21,4.48,4.81,6.72,11.86,6.72,21.14v58.02c0,9.29-2.24,16.34-6.72,21.14-4.48,4.81-11.2,7.21-20.16,7.21h-27.54v-114.73ZM953.69,651.31c2.95,0,5.22-.87,6.8-2.62,1.58-1.75,2.38-4.59,2.38-8.52v-59.66c0-3.93-.79-6.77-2.38-8.52-1.58-1.75-3.85-2.62-6.8-2.62h-9.18v81.95h9.18Z"/><path class="cls-2" d="M993.02,552.97h49.17v16.39h-31.14v30.32h24.75v16.39h-24.75v35.24h31.14v16.39h-49.17v-114.73Z"/><path class="cls-2" d="M1052.52,552.97h26.72c9.28,0,16.06,2.16,20.32,6.47,4.26,4.32,6.39,10.95,6.39,19.91v7.05c0,11.91-3.93,19.45-11.8,22.62v.33c4.37,1.31,7.46,3.99,9.26,8.03,1.8,4.04,2.7,9.45,2.7,16.23v20.16c0,3.28.11,5.93.33,7.95.22,2.02.76,4.02,1.64,5.98h-18.36c-.65-1.86-1.09-3.61-1.31-5.25-.22-1.64-.33-4.59-.33-8.85v-20.98c0-5.25-.85-8.9-2.54-10.98-1.69-2.07-4.62-3.11-8.77-3.11h-6.23v49.17h-18.03v-114.73ZM1077.1,602.14c3.61,0,6.31-.93,8.11-2.79,1.8-1.86,2.7-4.97,2.7-9.34v-8.85c0-4.15-.74-7.16-2.21-9.01-1.47-1.86-3.8-2.79-6.97-2.79h-8.19v32.78h6.56Z"/></svg>