<?xml version="1.0" encoding="UTF-8"?><svg id="Layer_1" xmlns="http://www.w3.org/2000/svg" viewBox="0 0 1024 1536"><defs><style>.cls-1{fill:#000;stroke-width:0px;}.cls-2{fill:none;opacity:.15;stroke:#4b3c5e;stroke-miterlimit:10;stroke-width:29.39px;}</style></defs><path class="cls-1" d="M994.61,29.39v1477.21H29.39V29.39h965.21M1024,0H0v1536h1024V0h0Z"/><line class="cls-2" x2="1024" y2="1536"/><line class="cls-2" x1="1024" y2="1536"/><path class="cls-1" d="M64,593.96h29.68c10.01,0,17.53,2.69,22.53,8.06,5.01,5.38,7.51,13.25,7.51,23.63v12.64c0,10.38-2.5,18.26-7.51,23.63-5.01,5.38-12.52,8.06-22.53,8.06h-9.52v52.21h-20.15v-128.24ZM93.68,651.67c3.3,0,5.77-.92,7.42-2.75,1.65-1.83,2.47-4.95,2.47-9.34v-15.21c0-4.4-.82-7.51-2.47-9.34-1.65-1.83-4.12-2.75-7.42-2.75h-9.52v39.39h9.52Z"/><path class="cls-1" d="M141.12,715.61c-5.25-5.62-7.88-13.56-7.88-23.82v-67.42c0-10.26,2.63-18.2,7.88-23.82,5.25-5.62,12.82-8.43,22.72-8.43s17.46,2.81,22.72,8.43c5.25,5.62,7.88,13.56,7.88,23.82v67.42c0,10.26-2.63,18.2-7.88,23.82-5.25,5.62-12.82,8.43-22.72,8.43s-17.47-2.81-22.72-8.43ZM174.28,693.07v-69.98c0-8.43-3.48-12.64-10.44-12.64s-10.44,4.21-10.44,12.64v69.98c0,8.43,3.48,12.64,10.44,12.64s10.44-4.21,10.44-12.64Z"/><path class="cls-1" d="M207.99,593.96h29.86c10.38,0,17.95,2.41,22.72,7.24,4.76,4.83,7.15,12.25,7.15,22.26v7.88c0,13.31-4.4,21.74-13.19,25.28v.37c4.88,1.47,8.34,4.46,10.35,8.98,2.02,4.52,3.02,10.57,3.02,18.14v22.53c0,3.66.12,6.63.37,8.89.24,2.26.85,4.49,1.83,6.69h-20.52c-.73-2.08-1.22-4.03-1.47-5.86-.25-1.83-.37-5.13-.37-9.89v-23.45c0-5.86-.95-9.95-2.84-12.27-1.89-2.32-5.16-3.48-9.8-3.48h-6.96v54.96h-20.15v-128.24ZM235.47,648.92c4.03,0,7.05-1.04,9.07-3.11,2.01-2.08,3.02-5.56,3.02-10.44v-9.89c0-4.64-.82-8-2.47-10.08-1.65-2.08-4.25-3.11-7.79-3.11h-9.16v36.64h7.33Z"/><path class="cls-1" d="M297.21,612.28h-21.07v-18.32h62.29v18.32h-21.07v109.92h-20.15v-109.92Z"/><path class="cls-1" d="M348.14,593.96h29.86c10.38,0,17.95,2.41,22.72,7.24,4.76,4.83,7.15,12.25,7.15,22.26v7.88c0,13.31-4.4,21.74-13.19,25.28v.37c4.88,1.47,8.34,4.46,10.35,8.98,2.02,4.52,3.02,10.57,3.02,18.14v22.53c0,3.66.12,6.63.37,8.89.24,2.26.85,4.49,1.83,6.69h-20.52c-.73-2.08-1.22-4.03-1.47-5.86-.25-1.83-.37-5.13-.37-9.89v-23.45c0-5.86-.95-9.95-2.84-12.27-1.89-2.32-5.16-3.48-9.8-3.48h-6.96v54.96h-20.15v-128.24ZM375.62,648.92c4.03,0,7.05-1.04,9.07-3.11,2.01-2.08,3.02-5.56,3.02-10.44v-9.89c0-4.64-.82-8-2.47-10.08-1.65-2.08-4.25-3.11-7.79-3.11h-9.16v36.64h7.33Z"/><path class="cls-1" d="M437.54,593.96h27.3l20.88,128.24h-20.15l-3.66-25.46v.37h-22.9l-3.66,25.1h-18.68l20.88-128.24ZM459.52,679.7l-8.98-63.39h-.37l-8.79,63.39h18.14Z"/><path class="cls-1" d="M495.42,593.96h20.15v128.24h-20.15v-128.24Z"/><path class="cls-1" d="M546.35,612.28h-21.07v-18.32h62.29v18.32h-21.07v109.92h-20.15v-109.92Z"/><path class="cls-1" d="M626.59,593.96h20.15v128.24h-20.15v-128.24Z"/><path class="cls-1" d="M661.76,593.96h28.76l12.82,91.78h.37l12.82-91.78h28.76v128.24h-19.05v-97.1h-.37l-14.66,97.1h-16.85l-14.66-97.1h-.37v97.1h-17.59v-128.24Z"/><path class="cls-1" d="M775.89,593.96h27.3l20.89,128.24h-20.15l-3.66-25.46v.37h-22.9l-3.66,25.1h-18.69l20.88-128.24ZM797.87,679.7l-8.98-63.39h-.37l-8.79,63.39h18.14Z"/><path class="cls-1" d="M839.64,715.7c-5.13-5.56-7.69-13.53-7.69-23.91v-67.42c0-10.38,2.57-18.35,7.69-23.91,5.13-5.56,12.58-8.34,22.35-8.34s17.22,2.78,22.35,8.34c5.13,5.56,7.69,13.53,7.69,23.91v10.99h-19.05v-12.27c0-8.43-3.48-12.64-10.44-12.64s-10.44,4.21-10.44,12.64v70.17c0,8.31,3.48,12.46,10.44,12.46s10.44-4.15,10.44-12.46v-25.1h-10.08v-18.32h29.13v41.95c0,10.38-2.56,18.35-7.69,23.91-5.13,5.56-12.58,8.34-22.35,8.34s-17.22-2.78-22.35-8.34Z"/><path class="cls-1" d="M905.04,593.96h54.96v18.32h-34.81v33.89h27.66v18.32h-27.66v39.39h34.81v18.32h-54.96v-128.24Z"/><path class="cls-1" d="M131.69,813.8h29.68c10.01,0,17.52,2.69,22.53,8.06,5.01,5.38,7.51,13.25,7.51,23.63v12.64c0,10.38-2.5,18.26-7.51,23.63-5.01,5.38-12.52,8.06-22.53,8.06h-9.53v52.21h-20.15v-128.24ZM161.37,871.51c3.3,0,5.77-.92,7.42-2.75,1.65-1.83,2.47-4.95,2.47-9.34v-15.21c0-4.4-.82-7.51-2.47-9.34-1.65-1.83-4.12-2.75-7.42-2.75h-9.53v39.39h9.53Z"/><path class="cls-1" d="M202.4,813.8h20.15v109.92h33.16v18.32h-53.31v-128.24Z"/><path class="cls-1" d="M281.72,813.8h27.3l20.89,128.24h-20.15l-3.66-25.46v.37h-22.9l-3.66,25.1h-18.69l20.89-128.24ZM303.71,899.54l-8.98-63.39h-.37l-8.79,63.39h18.14Z"/><path class="cls-1" d="M345.57,935.63c-5.07-5.5-7.6-13.25-7.6-23.27v-68.88c0-10.01,2.53-17.77,7.6-23.27,5.07-5.5,12.43-8.24,22.08-8.24s17,2.75,22.08,8.24c5.07,5.5,7.6,13.25,7.6,23.27v13.56h-19.05v-14.84c0-7.94-3.36-11.91-10.08-11.91s-10.08,3.97-10.08,11.91v71.63c0,7.82,3.36,11.72,10.08,11.72s10.08-3.91,10.08-11.72v-19.6h19.05v18.14c0,10.02-2.54,17.77-7.6,23.27-5.07,5.5-12.43,8.24-22.08,8.24s-17.01-2.75-22.08-8.24Z"/><path class="cls-1" d="M409.41,813.8h54.96v18.32h-34.81v33.89h27.66v18.32h-27.66v39.39h34.81v18.32h-54.96v-128.24Z"/><path class="cls-1" d="M475.91,813.8h20.15v52.21h21.62v-52.21h20.15v128.24h-20.15v-57.71h-21.62v57.71h-20.15v-128.24Z"/><path class="cls-1" d="M559.26,935.44c-5.25-5.62-7.88-13.56-7.88-23.82v-67.42c0-10.26,2.62-18.2,7.88-23.82,5.25-5.62,12.82-8.43,22.72-8.43s17.46,2.81,22.72,8.43c5.25,5.62,7.88,13.56,7.88,23.82v67.42c0,10.26-2.63,18.2-7.88,23.82-5.25,5.62-12.82,8.43-22.72,8.43s-17.47-2.81-22.72-8.43ZM592.42,912.91v-69.98c0-8.43-3.48-12.64-10.44-12.64s-10.44,4.21-10.44,12.64v69.98c0,8.43,3.48,12.64,10.44,12.64s10.44-4.21,10.44-12.64Z"/><path class="cls-1" d="M626.13,813.8h20.15v109.92h33.16v18.32h-53.31v-128.24Z"/><path class="cls-1" d="M689.15,813.8h30.78c10.01,0,17.52,2.69,22.53,8.06,5.01,5.38,7.51,13.25,7.51,23.63v64.85c0,10.38-2.5,18.26-7.51,23.63-5.01,5.38-12.52,8.06-22.53,8.06h-30.78v-128.24ZM719.56,923.72c3.3,0,5.83-.98,7.6-2.93,1.77-1.95,2.66-5.13,2.66-9.53v-66.68c0-4.4-.89-7.57-2.66-9.53-1.77-1.95-4.3-2.93-7.6-2.93h-10.26v91.6h10.26Z"/><path class="cls-1" d="M763.52,813.8h54.96v18.32h-34.81v33.89h27.66v18.32h-27.66v39.39h34.81v18.32h-54.96v-128.24Z"/><path class="cls-1" d="M830.02,813.8h29.86c10.38,0,17.95,2.41,22.72,7.24,4.76,4.83,7.15,12.25,7.15,22.26v7.88c0,13.31-4.4,21.74-13.19,25.28v.37c4.88,1.47,8.34,4.46,10.35,8.98,2.01,4.52,3.02,10.57,3.02,18.14v22.53c0,3.66.12,6.63.37,8.89.24,2.26.85,4.49,1.83,6.69h-20.52c-.73-2.08-1.22-4.03-1.47-5.86-.25-1.83-.37-5.13-.37-9.89v-23.45c0-5.86-.95-9.95-2.84-12.27-1.89-2.32-5.16-3.48-9.8-3.48h-6.96v54.96h-20.15v-128.24ZM857.5,868.76c4.03,0,7.05-1.04,9.07-3.11,2.02-2.08,3.02-5.56,3.02-10.44v-9.89c0-4.64-.82-8-2.47-10.08-1.65-2.08-4.24-3.11-7.79-3.11h-9.16v36.64h7.33Z"/></svg>