<?xml version="1.0" encoding="UTF-8"?><svg id="Layer_1" xmlns="http://www.w3.org/2000/svg" viewBox="0 0 1024 1024"><defs><style>.cls-1{fill:none;opacity:.15;stroke:#4b3c5e;stroke-miterlimit:10;stroke-width:24px;}.cls-2{fill:#000;stroke-width:0px;}</style></defs><path class="cls-2" d="M1000,24v976H24V24h976M1024,0H0V1024h1024V0h0Z"/><line class="cls-1" x2="1024" y2="1024"/><line class="cls-1" x1="1024" y2="1024"/><path class="cls-2" d="M72.47,453.03c-5.65-6.27-8.47-15.25-8.47-26.96v-8.26h21.48v9.92c0,9.37,3.93,14.05,11.77,14.05,3.85,0,6.78-1.14,8.78-3.41,1.99-2.27,3-5.95,3-11.05,0-6.06-1.38-11.39-4.13-16.01-2.76-4.61-7.85-10.15-15.29-16.63-9.37-8.26-15.9-15.73-19.62-22.41-3.72-6.68-5.58-14.22-5.58-22.62,0-11.43,2.89-20.27,8.68-26.54,5.78-6.27,14.18-9.4,25.2-9.4s19.11,3.13,24.68,9.4c5.58,6.27,8.36,15.25,8.36,26.95v5.99h-21.48v-7.44c0-4.96-.96-8.57-2.89-10.84-1.93-2.27-4.75-3.41-8.47-3.41-7.57,0-11.36,4.62-11.36,13.84,0,5.23,1.41,10.12,4.24,14.66,2.82,4.54,7.95,10.05,15.39,16.52,9.5,8.26,16.04,15.77,19.62,22.51,3.58,6.75,5.37,14.66,5.37,23.75,0,11.84-2.93,20.93-8.78,27.26-5.86,6.34-14.36,9.5-25.51,9.5s-19.35-3.13-24.99-9.4Z"/><path class="cls-2" d="M192.68,459.95c-4.27,1.65-9.29,2.48-15.08,2.48-11.15,0-19.69-3.17-25.61-9.5-5.92-6.33-8.88-15.28-8.88-26.85v-76.01c0-11.57,2.96-20.52,8.88-26.85,5.92-6.33,14.46-9.5,25.61-9.5s19.69,3.17,25.61,9.5c5.92,6.34,8.88,15.29,8.88,26.85v76.01c0,9.64-2.14,17.56-6.4,23.75.83,1.38,1.86,2.27,3.1,2.69,1.24.41,3.03.62,5.37.62h3.51v20.66h-5.99c-10.33,0-16.66-4.62-19-13.84ZM189.37,427.52v-78.9c0-9.5-3.93-14.25-11.77-14.25s-11.77,4.75-11.77,14.25v78.9c0,9.5,3.93,14.25,11.77,14.25s11.77-4.75,11.77-14.25Z"/><path class="cls-2" d="M235.23,453.03c-5.78-6.27-8.68-15.25-8.68-26.96v-110.3h22.72v111.95c0,4.96,1,8.54,3,10.74,1.99,2.2,4.85,3.31,8.57,3.31s6.58-1.1,8.57-3.31c1.99-2.2,3-5.78,3-10.74v-111.95h21.89v110.3c0,11.71-2.89,20.69-8.68,26.96-5.78,6.27-14.18,9.4-25.2,9.4s-19.42-3.13-25.2-9.4Z"/><path class="cls-2" d="M327.55,315.78h30.78l23.55,144.59h-22.72l-4.13-28.71v.41h-25.82l-4.13,28.3h-21.07l23.55-144.59ZM352.34,412.44l-10.12-71.47h-.41l-9.91,71.47h20.45Z"/><path class="cls-2" d="M392.82,315.78h33.67c11.7,0,20.24,2.72,25.61,8.16,5.37,5.44,8.06,13.81,8.06,25.09v8.88c0,15.01-4.96,24.51-14.87,28.51v.41c5.5,1.65,9.4,5.03,11.67,10.12,2.27,5.1,3.41,11.91,3.41,20.45v25.41c0,4.13.14,7.47.41,10.02.27,2.55.96,5.06,2.07,7.54h-23.13c-.83-2.34-1.38-4.54-1.65-6.61-.28-2.07-.41-5.78-.41-11.15v-26.44c0-6.61-1.07-11.22-3.2-13.84-2.14-2.61-5.82-3.92-11.05-3.92h-7.85v61.97h-22.72v-144.59ZM423.8,377.74c4.54,0,7.95-1.17,10.22-3.51,2.27-2.34,3.41-6.27,3.41-11.77v-11.15c0-5.23-.93-9.02-2.79-11.36-1.86-2.34-4.79-3.51-8.78-3.51h-10.33v41.31h8.26Z"/><path class="cls-2" d="M476.06,315.78h61.97v20.66h-39.24v38.21h31.19v20.66h-31.19v44.41h39.24v20.66h-61.97v-144.59Z"/><path class="cls-2" d="M584.08,315.78h22.72v144.59h-22.72v-144.59Z"/><path class="cls-2" d="M623.74,315.78h32.43l14.46,103.48h.41l14.46-103.48h32.43v144.59h-21.48v-109.47h-.41l-16.52,109.47h-19l-16.52-109.47h-.41v109.47h-19.83v-144.59Z"/><path class="cls-2" d="M752.42,315.78h30.78l23.55,144.59h-22.72l-4.13-28.71v.41h-25.82l-4.13,28.3h-21.07l23.55-144.59ZM777.2,412.44l-10.12-71.47h-.41l-9.91,71.47h20.45Z"/><path class="cls-2" d="M824.3,453.03c-5.78-6.27-8.68-15.25-8.68-26.96v-76.01c0-11.7,2.89-20.69,8.68-26.95,5.78-6.27,14.18-9.4,25.2-9.4s19.41,3.13,25.2,9.4c5.78,6.27,8.67,15.25,8.67,26.95v12.39h-21.48v-13.84c0-9.5-3.93-14.25-11.77-14.25s-11.77,4.75-11.77,14.25v79.11c0,9.37,3.93,14.05,11.77,14.05s11.77-4.68,11.77-14.05v-28.3h-11.36v-20.66h32.84v47.3c0,11.71-2.89,20.69-8.67,26.96-5.79,6.27-14.18,9.4-25.2,9.4s-19.42-3.13-25.2-9.4Z"/><path class="cls-2" d="M898.03,315.78h61.97v20.66h-39.24v38.21h31.19v20.66h-31.19v44.41h39.24v20.66h-61.97v-144.59Z"/><path class="cls-2" d="M85.17,563.64h33.46c11.29,0,19.76,3.03,25.41,9.09,5.64,6.06,8.47,14.94,8.47,26.65v14.25c0,11.71-2.82,20.59-8.47,26.64-5.65,6.06-14.12,9.09-25.41,9.09h-10.74v58.87h-22.72v-144.59ZM118.63,628.7c3.72,0,6.51-1.03,8.37-3.1,1.86-2.07,2.79-5.58,2.79-10.54v-17.14c0-4.96-.93-8.47-2.79-10.53-1.86-2.07-4.65-3.1-8.37-3.1h-10.74v44.41h10.74Z"/><path class="cls-2" d="M164.9,563.64h22.72v123.93h37.38v20.66h-60.11v-144.59Z"/><path class="cls-2" d="M254.33,563.64h30.78l23.55,144.59h-22.72l-4.13-28.71v.41h-25.82l-4.13,28.3h-21.07l23.55-144.59ZM279.12,660.3l-10.12-71.47h-.41l-9.91,71.47h20.45Z"/><path class="cls-2" d="M326.31,700.99c-5.72-6.2-8.57-14.94-8.57-26.23v-77.66c0-11.29,2.86-20.04,8.57-26.23,5.71-6.2,14.01-9.29,24.89-9.29s19.17,3.1,24.89,9.29c5.71,6.2,8.57,14.94,8.57,26.23v15.28h-21.48v-16.73c0-8.95-3.79-13.43-11.36-13.43s-11.36,4.48-11.36,13.43v80.76c0,8.81,3.79,13.22,11.36,13.22s11.36-4.41,11.36-13.22v-22.1h21.48v20.45c0,11.29-2.86,20.04-8.57,26.23-5.71,6.2-14.01,9.29-24.89,9.29s-19.18-3.1-24.89-9.29Z"/><path class="cls-2" d="M398.29,563.64h61.97v20.66h-39.24v38.21h31.19v20.66h-31.19v44.41h39.24v20.66h-61.97v-144.59Z"/><path class="cls-2" d="M473.27,563.64h22.72v58.87h24.37v-58.87h22.72v144.59h-22.72v-65.06h-24.37v65.06h-22.72v-144.59Z"/><path class="cls-2" d="M567.25,700.79c-5.92-6.33-8.88-15.28-8.88-26.85v-76.01c0-11.57,2.96-20.52,8.88-26.85,5.92-6.33,14.46-9.5,25.61-9.5s19.69,3.17,25.61,9.5c5.92,6.34,8.88,15.29,8.88,26.85v76.01c0,11.57-2.96,20.52-8.88,26.85-5.92,6.34-14.46,9.5-25.61,9.5s-19.69-3.17-25.61-9.5ZM604.64,675.38v-78.9c0-9.5-3.93-14.25-11.77-14.25s-11.77,4.75-11.77,14.25v78.9c0,9.5,3.93,14.25,11.77,14.25s11.77-4.75,11.77-14.25Z"/><path class="cls-2" d="M642.64,563.64h22.72v123.93h37.39v20.66h-60.11v-144.59Z"/><path class="cls-2" d="M713.69,563.64h34.7c11.29,0,19.76,3.03,25.41,9.09,5.64,6.06,8.47,14.94,8.47,26.65v73.12c0,11.71-2.82,20.59-8.47,26.64-5.65,6.06-14.12,9.09-25.41,9.09h-34.7v-144.59ZM747.98,687.57c3.72,0,6.57-1.1,8.57-3.31,1.99-2.2,3-5.78,3-10.74v-75.19c0-4.96-1-8.54-3-10.74-2-2.2-4.85-3.3-8.57-3.3h-11.57v103.28h11.57Z"/><path class="cls-2" d="M797.55,563.64h61.97v20.66h-39.24v38.21h31.19v20.66h-31.19v44.41h39.24v20.66h-61.97v-144.59Z"/><path class="cls-2" d="M872.52,563.64h33.67c11.7,0,20.24,2.72,25.61,8.16,5.37,5.44,8.06,13.81,8.06,25.09v8.88c0,15.01-4.96,24.51-14.87,28.51v.41c5.51,1.65,9.4,5.03,11.67,10.12,2.27,5.1,3.41,11.91,3.41,20.45v25.41c0,4.13.14,7.47.41,10.02.27,2.55.96,5.06,2.07,7.54h-23.13c-.82-2.34-1.38-4.54-1.65-6.61-.28-2.07-.41-5.78-.41-11.15v-26.44c0-6.61-1.07-11.22-3.2-13.84-2.14-2.61-5.82-3.92-11.05-3.92h-7.85v61.97h-22.72v-144.59ZM903.51,625.6c4.54,0,7.95-1.17,10.22-3.51,2.27-2.34,3.41-6.27,3.41-11.77v-11.15c0-5.23-.93-9.02-2.79-11.36-1.86-2.34-4.78-3.51-8.78-3.51h-10.33v41.31h8.26Z"/></svg>