<?xml version="1.0" encoding="UTF-8"?><svg id="Layer_1" xmlns="http://www.w3.org/2000/svg" viewBox="0 0 1024 1024"><defs><style>.cls-1{fill:none;opacity:.15;stroke:#4b3c5e;stroke-miterlimit:10;stroke-width:24px;}.cls-2{fill:#000;stroke-width:0px;}</style></defs><path class="cls-2" d="M1000,24v976H24V24h976M1024,0H0V1024h1024V0h0Z"/><line class="cls-1" x2="1024" y2="1024"/><line class="cls-1" x1="1024" y2="1024"/><path class="cls-2" d="M512,512c88.37,0,160-71.63,160-160s-71.63-160-160-160-160,71.63-160,160,71.63,160,160,160ZM454.88,572c-123.12,0-222.88,99.75-222.88,222.87,0,20.5,16.63,37.13,37.13,37.13h485.75c20.5,0,37.13-16.62,37.13-37.13,0-123.12-99.75-222.87-222.87-222.87h-114.25Z"/></svg>