<?xml version="1.0" encoding="UTF-8"?><svg id="Layer_1" xmlns="http://www.w3.org/2000/svg" viewBox="0 0 1024 1024"><defs><style>.cls-1{fill:none;opacity:.15;stroke:#4b3c5e;stroke-miterlimit:10;stroke-width:24px;}.cls-2{fill:#000;stroke-width:0px;}</style></defs><path class="cls-2" d="M1000,24v976H24V24h976M1024,0H0v1024h1024V0h0Z"/><line class="cls-1" x2="1024" y2="1024"/><line class="cls-1" x1="1024" y2="1024"/><path class="cls-2" d="M353.67,306.94h23.74v129.51h39.07v21.59h-62.81v-151.1Z"/><path class="cls-2" d="M434.62,450.26c-6.19-6.62-9.28-15.97-9.28-28.06v-79.43c0-12.09,3.09-21.44,9.28-28.06,6.19-6.62,15.11-9.93,26.77-9.93s20.58,3.31,26.77,9.93c6.19,6.62,9.28,15.97,9.28,28.06v79.43c0,12.09-3.1,21.44-9.28,28.06-6.19,6.62-15.11,9.93-26.77,9.93s-20.58-3.31-26.77-9.93ZM473.69,423.71v-82.46c0-9.93-4.1-14.89-12.3-14.89s-12.3,4.96-12.3,14.89v82.46c0,9.93,4.1,14.89,12.3,14.89s12.3-4.96,12.3-14.89Z"/><path class="cls-2" d="M520.74,450.37c-6.04-6.55-9.07-15.94-9.07-28.17v-79.43c0-12.23,3.02-21.62,9.07-28.17,6.04-6.55,14.82-9.82,26.33-9.82s20.29,3.27,26.33,9.82c6.04,6.55,9.06,15.94,9.06,28.17v12.95h-22.45v-14.46c0-9.93-4.1-14.89-12.3-14.89s-12.3,4.96-12.3,14.89v82.67c0,9.79,4.1,14.68,12.3,14.68s12.3-4.89,12.3-14.68v-29.57h-11.87v-21.59h34.32v49.43c0,12.23-3.02,21.62-9.06,28.17-6.05,6.55-14.82,9.82-26.33,9.82s-20.29-3.27-26.33-9.82Z"/><path class="cls-2" d="M605.36,450.26c-6.19-6.62-9.28-15.97-9.28-28.06v-79.43c0-12.09,3.09-21.44,9.28-28.06,6.19-6.62,15.11-9.93,26.77-9.93s20.58,3.31,26.77,9.93c6.18,6.62,9.28,15.97,9.28,28.06v79.43c0,12.09-3.1,21.44-9.28,28.06-6.19,6.62-15.11,9.93-26.77,9.93s-20.58-3.31-26.77-9.93ZM644.43,423.71v-82.46c0-9.93-4.1-14.89-12.3-14.89s-12.3,4.96-12.3,14.89v82.46c0,9.93,4.1,14.89,12.3,14.89s12.3-4.96,12.3-14.89Z"/><path class="cls-2" d="M64,565.96h34.97c11.8,0,20.65,3.17,26.55,9.5,5.9,6.33,8.85,15.62,8.85,27.85v14.89c0,12.23-2.95,21.51-8.85,27.85-5.9,6.33-14.75,9.5-26.55,9.5h-11.22v61.52h-23.74v-151.1ZM98.97,633.96c3.89,0,6.8-1.08,8.74-3.24s2.91-5.83,2.91-11.01v-17.92c0-5.18-.97-8.85-2.91-11.01-1.94-2.16-4.86-3.24-8.74-3.24h-11.22v46.41h11.22Z"/><path class="cls-2" d="M147.32,565.96h23.74v129.51h39.07v21.59h-62.81v-151.1Z"/><path class="cls-2" d="M240.78,565.96h32.16l24.61,151.1h-23.74l-4.32-30v.43h-26.98l-4.32,29.57h-22.02l24.61-151.1ZM266.68,666.98l-10.58-74.69h-.43l-10.36,74.69h21.37Z"/><path class="cls-2" d="M316,709.51c-5.97-6.48-8.96-15.61-8.96-27.41v-81.16c0-11.8,2.98-20.94,8.96-27.41,5.97-6.48,14.64-9.71,26.01-9.71s20.04,3.24,26.01,9.71c5.97,6.48,8.96,15.62,8.96,27.41v15.97h-22.45v-17.48c0-9.35-3.96-14.03-11.87-14.03s-11.87,4.68-11.87,14.03v84.4c0,9.21,3.96,13.81,11.87,13.81s11.87-4.6,11.87-13.81v-23.1h22.45v21.37c0,11.8-2.99,20.94-8.96,27.41-5.97,6.48-14.64,9.71-26.01,9.71s-20.04-3.24-26.01-9.71Z"/><path class="cls-2" d="M391.23,565.96h64.76v21.59h-41.01v39.93h32.59v21.59h-32.59v46.41h41.01v21.59h-64.76v-151.1Z"/><path class="cls-2" d="M469.58,565.96h23.74v61.52h25.47v-61.52h23.74v151.1h-23.74v-67.99h-25.47v67.99h-23.74v-151.1Z"/><path class="cls-2" d="M567.8,709.29c-6.19-6.62-9.28-15.97-9.28-28.06v-79.43c0-12.09,3.09-21.44,9.28-28.06,6.19-6.62,15.11-9.93,26.77-9.93s20.58,3.31,26.77,9.93c6.18,6.62,9.28,15.97,9.28,28.06v79.43c0,12.09-3.1,21.44-9.28,28.06-6.19,6.62-15.11,9.93-26.77,9.93s-20.58-3.31-26.77-9.93ZM606.87,682.74v-82.46c0-9.93-4.1-14.89-12.3-14.89s-12.3,4.96-12.3,14.89v82.46c0,9.93,4.1,14.89,12.3,14.89s12.3-4.96,12.3-14.89Z"/><path class="cls-2" d="M646.58,565.96h23.74v129.51h39.07v21.59h-62.82v-151.1Z"/><path class="cls-2" d="M720.84,565.96h36.27c11.8,0,20.65,3.17,26.55,9.5,5.9,6.33,8.85,15.62,8.85,27.85v76.41c0,12.23-2.95,21.51-8.85,27.85-5.9,6.33-14.75,9.5-26.55,9.5h-36.27v-151.1ZM756.67,695.48c3.88,0,6.87-1.15,8.96-3.45,2.08-2.3,3.13-6.04,3.13-11.22v-78.57c0-5.18-1.05-8.92-3.13-11.22-2.09-2.3-5.07-3.45-8.96-3.45h-12.09v107.93h12.09Z"/><path class="cls-2" d="M808.47,565.96h64.76v21.59h-41.01v39.93h32.6v21.59h-32.6v46.41h41.01v21.59h-64.76v-151.1Z"/><path class="cls-2" d="M886.82,565.96h35.19c12.23,0,21.15,2.84,26.76,8.53,5.61,5.69,8.42,14.43,8.42,26.23v9.28c0,15.69-5.18,25.62-15.54,29.79v.43c5.75,1.73,9.82,5.26,12.2,10.58,2.37,5.33,3.56,12.45,3.56,21.37v26.55c0,4.32.14,7.81.43,10.47.29,2.66,1.01,5.29,2.16,7.88h-24.18c-.86-2.45-1.44-4.75-1.73-6.91-.29-2.16-.43-6.04-.43-11.66v-27.63c0-6.91-1.12-11.73-3.35-14.46-2.23-2.73-6.08-4.1-11.55-4.1h-8.2v64.76h-23.74v-151.1ZM919.2,630.72c4.75,0,8.31-1.22,10.69-3.67,2.38-2.45,3.56-6.55,3.56-12.3v-11.66c0-5.47-.97-9.42-2.92-11.87-1.94-2.45-5-3.67-9.17-3.67h-10.79v43.17h8.63Z"/></svg>