<svg xmlns="http://www.w3.org/2000/svg" viewBox="0 0 763.87 180.72"><defs><style>.cls-1{fill:#000000;stroke-width:0px;}</style></defs><path class="cls-1" d="M81.6,130.12v-57.4c0-12.27-3.43-22-10.3-29.2-6.87-7.2-16.1-10.8-27.7-10.8-5.33,0-11,1.13-17,3.4-6,2.27-12.33,5.67-19,10.2l2.4,3.2c5.87-4.13,11.7-7.3,17.5-9.5,5.8-2.2,11.17-3.3,16.1-3.3,10.27,0,18.5,3.3,24.7,9.9,6.2,6.6,9.3,15.3,9.3,26.1v11.8c-4.93-1.87-10.5-3.3-16.7-4.3-6.2-1-12.23-1.5-18.1-1.5-8.4,0-15.8,1.27-22.2,3.8-6.4,2.53-11.43,6-15.1,10.4-3.67,4.4-5.5,9.53-5.5,15.4s1.5,11.23,4.5,16.1c3,4.87,7.03,8.7,12.1,11.5,5.07,2.8,10.73,4.2,17,4.2,9.07,0,17.47-1.73,25.2-5.2,7.73-3.47,14-8.27,18.8-14.4v9.6c0,1.73.4,3.3,1.2,4.7.8,1.4,1.87,2.37,3.2,2.9.27.13.6.23,1,.3.4.07,1,.1,1.8.1v-4c-.93,0-1.7-.33-2.3-1-.6-.67-.9-1.67-.9-3ZM77.6,109.52c0,1.2-.23,2.5-.7,3.9-.47,1.4-1.23,2.83-2.3,4.3-3.6,5.6-9.1,10.07-16.5,13.4-7.4,3.33-15.57,5-24.5,5-5.47,0-10.47-1.23-15-3.7-4.53-2.47-8.1-5.8-10.7-10-2.6-4.2-3.9-8.9-3.9-14.1,0-7.73,3.57-13.93,10.7-18.6,7.13-4.67,16.5-7,28.1-7,6.27,0,12.3.5,18.1,1.5,5.8,1,11.37,2.57,16.7,4.7v20.6Z"/><path class="cls-1" d="M194.3,49.62c-4.47-5.13-9.73-9.23-15.8-12.3-6.07-3.07-12.77-4.6-20.1-4.6-7.87,0-15.5,2.2-22.9,6.6s-13.3,10.07-17.7,17v-22h-4v146.4h4v-66.4c4.53,6.93,10.43,12.97,17.7,18.1,7.27,5.13,15.5,7.7,24.7,7.7,9.73,0,18.2-2.5,25.4-7.5,7.2-5,12.8-11.57,16.8-19.7,4-8.13,6-16.93,6-26.4,0-6.67-1.23-13.2-3.7-19.6-2.47-6.4-5.93-12.17-10.4-17.3ZM201.3,104.52c-2.07,5.87-5.03,11.2-8.9,16-3.87,4.8-8.5,8.6-13.9,11.4s-11.5,4.2-18.3,4.2c-6.13,0-11.97-1.37-17.5-4.1-5.53-2.73-10.43-6.37-14.7-10.9-4.27-4.53-7.67-9.6-10.2-15.2v-37.4c.27-4.13,1.73-8.1,4.4-11.9,2.67-3.8,6.07-7.2,10.2-10.2,4.13-3,8.5-5.37,13.1-7.1,4.6-1.73,8.9-2.6,12.9-2.6,6.4,0,12.37,1.37,17.9,4.1,5.53,2.73,10.43,6.43,14.7,11.1,4.27,4.67,7.57,9.97,9.9,15.9,2.33,5.93,3.5,12.17,3.5,18.7,0,6.13-1.03,12.13-3.1,18Z"/><path class="cls-1" d="M314.9,49.62c-4.47-5.13-9.73-9.23-15.8-12.3-6.07-3.07-12.77-4.6-20.1-4.6-7.87,0-15.5,2.2-22.9,6.6s-13.3,10.07-17.7,17v-22h-4v146.4h4v-66.4c4.53,6.93,10.43,12.97,17.7,18.1,7.27,5.13,15.5,7.7,24.7,7.7,9.73,0,18.2-2.5,25.4-7.5,7.2-5,12.8-11.57,16.8-19.7,4-8.13,6-16.93,6-26.4,0-6.67-1.23-13.2-3.7-19.6-2.47-6.4-5.93-12.17-10.4-17.3ZM321.9,104.52c-2.07,5.87-5.03,11.2-8.9,16-3.87,4.8-8.5,8.6-13.9,11.4s-11.5,4.2-18.3,4.2c-6.13,0-11.97-1.37-17.5-4.1-5.53-2.73-10.43-6.37-14.7-10.9-4.27-4.53-7.67-9.6-10.2-15.2v-37.4c.27-4.13,1.73-8.1,4.4-11.9,2.67-3.8,6.07-7.2,10.2-10.2,4.13-3,8.5-5.37,13.1-7.1,4.6-1.73,8.9-2.6,12.9-2.6,6.4,0,12.37,1.37,17.9,4.1,5.53,2.73,10.43,6.43,14.7,11.1,4.27,4.67,7.57,9.97,9.9,15.9,2.33,5.93,3.5,12.17,3.5,18.7,0,6.13-1.03,12.13-3.1,18Z"/><path class="cls-1" d="M458.75,75.25c-.22-2.72-.55-4.75-.99-6.08-2.21-2.5-5.52-5.08-9.94-7.73-4.42-2.65-9.32-5.27-14.7-7.85-5.38-2.58-10.54-5.01-15.47-7.29-4.94-2.28-9.14-4.31-12.6-6.08-3.46-1.77-5.41-3.09-5.86-3.98-.59-1.03-1.07-2.47-1.44-4.31-.37-1.84-.59-3.83-.66-5.97-.08-2.13.03-4.12.33-5.97.29-1.84.88-3.2,1.77-4.09.44-.44.88-.77,1.33-.99.44-.22.96-.37,1.55-.44.59-.07,1.25-.11,1.99-.11,1.91,0,4.64.41,8.18,1.22,3.54.81,7.11,1.73,10.72,2.76,3.61,1.03,6.44,2.06,8.51,3.09l5.52,24.31h17.02l1.77-39.78c-2.65-.44-6.12-.96-10.39-1.55-4.27-.59-8.92-1.14-13.92-1.66-5.01-.51-9.87-.99-14.59-1.44-4.72-.44-8.81-.77-12.27-.99-3.46-.22-5.71-.33-6.74-.33-2.36,0-5.41.81-9.17,2.43-3.76,1.62-7.81,3.79-12.16,6.52-4.35,2.73-8.55,5.71-12.6,8.95-4.05,3.24-7.55,6.45-10.5,9.61-2.95,3.17-4.79,6.08-5.52,8.73-.44,1.92-.7,4.46-.77,7.62-.08,3.17,0,6.45.22,9.83.22,3.39.59,6.52,1.1,9.39.51,2.87,1.22,4.97,2.1,6.3,1.62,2.06,4.42,4.39,8.4,6.96,3.98,2.58,8.58,5.19,13.81,7.85,5.23,2.65,10.39,5.23,15.47,7.73,5.08,2.51,9.46,4.79,13.15,6.85,3.68,2.06,6.04,3.68,7.07,4.86.44.44.7,1.36.77,2.76.07,1.4.07,2.98,0,4.75-.08,1.77-.26,3.31-.55,4.64,2.21-.88,4.34-1.99,6.41-3.31,2.06-1.33,3.54-2.65,4.42-3.98.29-1.62.51-3.57.66-5.86.15-2.28-.22-3.94-1.1-4.97-.74-1.03-2.73-2.5-5.97-4.42-3.24-1.91-7.15-4.09-11.71-6.52-4.57-2.43-9.32-4.86-14.25-7.29-4.94-2.43-9.54-4.75-13.81-6.96-3.68-1.91-6.63-3.61-8.84-5.08-2.21-1.47-3.91-2.95-5.08-4.42-1.33-1.91-2.1-4.16-2.32-6.74-.22-2.58-.33-5.93-.33-10.06,0-2.5.11-4.49.33-5.97.22-1.47.88-2.98,1.99-4.53s3.06-3.43,5.86-5.64c0,2.95.07,6.08.22,9.39.15,3.32.4,6.45.77,9.39.37,2.95.85,5.45,1.44,7.51.44,1.47,2.54,3.39,6.3,5.75,3.76,2.36,8.36,4.9,13.81,7.62,5.45,2.73,10.97,5.45,16.57,8.18,5.6,2.73,10.53,5.23,14.81,7.51,4.27,2.29,7,4.16,8.18,5.64.44.59.81,1.7,1.1,3.31.29,1.62.44,3.46.44,5.52s-.04,4.05-.11,5.97c-.08,1.92-.26,3.46-.55,4.64-.3,1.33-1.29,2.8-2.98,4.42-1.7,1.62-3.72,3.13-6.08,4.53-2.36,1.4-4.72,2.54-7.07,3.43-2.36.88-4.35,1.33-5.97,1.33-1.03,0-2.87-.22-5.52-.66-2.65-.44-5.67-1.07-9.06-1.88-3.39-.81-6.85-1.73-10.39-2.76-3.54-1.03-6.71-2.21-9.5-3.54l-5.52-21.22h-18.34l-1.77,42.21c3.83.44,8.62.92,14.36,1.44,5.75.51,11.75.99,18.01,1.44,6.26.44,12.15.81,17.68,1.1,5.53.29,9.91.44,13.15.44,2.5,0,6.19-.99,11.05-2.98,4.86-1.99,10.06-4.6,15.58-7.85,5.52-3.24,10.46-6.89,14.81-10.94,4.34-4.05,7.25-8.14,8.73-12.27.29-3.54.44-7.22.44-11.05s-.08-7.51-.22-11.05c-.15-3.54-.33-6.66-.55-9.39Z"/><path class="cls-1" d="M558.09,68.51c0-2.21-1.1-5.12-3.31-8.73-2.21-3.61-4.97-7.25-8.29-10.94-3.31-3.68-6.63-6.85-9.94-9.5s-6.08-4.2-8.29-4.64c-3.83-.74-8.33-1.1-13.48-1.1s-10.39.11-15.69.33-10.17.55-14.59.99l-5.97,21.88,3.54,5.08c2.95-.15,6.33-.29,10.17-.44,3.83-.15,7.7-.22,11.6-.22s7.48.15,10.72.44c3.83.15,6.3.99,7.4,2.54,1.1,1.55,1.66,4.39,1.66,8.51v9.04l-47.51,5.33c-1.03,3.68-1.88,7.26-2.54,10.72-.66,3.46-.99,6.89-.99,10.28,0,5.89,1.14,11.35,3.43,16.35,2.28,5.01,5.89,8.99,10.83,11.93,4.93,2.95,11.45,4.42,19.56,4.42.59,0,2.13-.99,4.64-2.98,2.5-1.99,5.3-4.27,8.4-6.85,2-1.67,3.83-3.15,5.52-4.48v5.25c0,.59.62,1.62,1.88,3.09,1.25,1.47,2.58,2.84,3.98,4.09,1.4,1.25,2.32,1.88,2.76,1.88,1.18,0,3.76-.26,7.73-.77,3.98-.52,8.4-1.14,13.26-1.88,4.86-.74,9.13-1.4,12.82-1.99v-13.92l-9.28-3.31v-50.39ZM516.76,116.58c-1.62.66-3.09.99-4.42.99-2.36,0-4.02-1.22-4.97-3.65-.96-2.43-1.44-4.82-1.44-7.18,0-1.33.11-2.72.33-4.2.12-.81.28-1.57.47-2.29l16.87-4.13v16.61c-.55.36-1.11.73-1.66,1.08-1.84,1.18-3.57,2.1-5.19,2.76Z"/><path class="cls-1" d="M647.26,38.9c-4.2-.88-8.44-1.73-12.71-2.54-4.27-.81-7.99-1.47-11.16-1.99-3.17-.51-5.12-.77-5.86-.77-1.47,0-3.94.92-7.4,2.76-3.46,1.84-7.26,4.13-11.38,6.85-4.13,2.73-7.92,5.42-11.38,8.07-3.46,2.65-5.86,4.79-7.18,6.41-1.47,3.24-2.8,7.74-3.98,13.48-1.18,5.75-1.77,11.42-1.77,17.02,0,7.37,1.1,13.89,3.31,19.56,2.21,5.67,5.34,10.31,9.39,13.92,4.05,3.61,8.8,6.08,14.25,7.4l-27.62,22.32,5.08,21.22c2.95.74,6.74,1.62,11.38,2.65,4.64,1.03,9.47,1.91,14.48,2.65,5.01.74,9.28,1.1,12.82,1.1s7.55-1.14,12.49-3.43c4.93-2.29,9.91-5.27,14.92-8.95,5.01-3.68,9.17-7.62,12.49-11.82,3.31-4.2,4.97-8.14,4.97-11.82V41.77c-.15,0-1.66-.26-4.53-.77-2.87-.51-6.41-1.22-10.61-2.1ZM610.79,70.28c.22-3.98.59-7.44,1.1-10.39.51-2.95,1.1-5.27,1.77-6.96.66-1.69,1.44-2.76,2.32-3.2.74-.44,2.02-.03,3.87,1.22,1.84,1.25,3.68,2.54,5.52,3.87,1.84,1.33,2.98,2.07,3.43,2.21v48.62c-1.62,1.18-2.98,2.18-4.09,2.98-1.1.81-2.14,1.51-3.09,2.1-.96.59-1.66.88-2.1.88-1.62,0-3.13-1.14-4.53-3.43-1.4-2.28-2.51-5.52-3.32-9.72-.81-4.2-1.22-9.02-1.22-14.48,0-5.16.11-9.72.33-13.7ZM629.91,138.57c0,3.68-.22,7.51-.66,11.49-.44,3.98-1.1,7.29-1.99,9.95-.88,2.65-1.92,3.98-3.09,3.98-1.03,0-2.51-.33-4.42-.99-1.92-.66-3.98-1.51-6.19-2.54-2.21-1.03-4.2-2.03-5.97-2.98-1.77-.96-3.09-1.66-3.98-2.1v-1.77c1.18-1.18,2.8-2.84,4.86-4.97,2.06-2.14,4.31-4.5,6.74-7.07,2.43-2.58,4.82-5.08,7.18-7.51,2.35-2.43,4.42-4.53,6.19-6.3l1.33.66v10.17Z"/><path class="cls-1" d="M759.53,54.81c-3.17-7.96-7.81-13.48-13.92-16.57-6.12-3.09-13.52-4.64-22.21-4.64-1.77,0-4.57.92-8.4,2.76-3.83,1.84-7.99,4.13-12.49,6.85-4.5,2.73-8.62,5.42-12.38,8.07s-6.37,4.86-7.85,6.63c-1.47,3.54-2.8,8.55-3.98,15.03-1.18,6.49-1.77,13.19-1.77,20.11,0,9.87,1.73,18.38,5.19,25.53,3.46,7.15,8.47,12.63,15.03,16.46,6.55,3.83,14.4,5.75,23.54,5.75,1.33,0,3.76-.48,7.29-1.44,3.54-.96,7.44-2.06,11.71-3.31,4.27-1.25,8.36-2.54,12.27-3.87,3.9-1.33,6.81-2.28,8.73-2.87v-14.14c-2.06.15-4.94.3-8.62.44-3.68.15-7.48.3-11.38.44-3.91.15-7.18.3-9.83.44-2.65.15-4.05.22-4.2.22-2.65,0-5.08-.99-7.29-2.98-2.21-1.99-3.94-4.93-5.19-8.84-.97-3.01-1.56-6.53-1.78-10.56l51.83-5.47c.29-14.73-1.14-26.08-4.31-34.03ZM731.13,75.36l-19.04,3.65c.23-6.78.69-12.5,1.36-17.13,1.03-7.07,2.28-11.12,3.76-12.16.59-.29,1.62-.37,3.09-.22,1.47.15,2.58.37,3.31.66,2.5.74,4.42,3.28,5.75,7.62,1.33,4.35,1.91,10.2,1.77,17.57Z"/></svg>